/* XPM */
static const char *arch_extract[] = {
/* columns rows colors chars-per-pixel */
"22 22 229 2 ",
"   c #683D00",
".  c #6A3E00",
"X  c #6B4200",
"o  c #6D4000",
"O  c #7D4C0E",
"+  c #7F530B",
"@  c #883900",
"#  c #9E4000",
"$  c #915B05",
"%  c #915C07",
"&  c #925D09",
"*  c #B55403",
"=  c #9F660E",
"-  c #956212",
";  c #976312",
":  c #996716",
">  c #996717",
",  c #9C6816",
"<  c #9A6818",
"1  c #99681B",
"2  c #9D6B1A",
"3  c #9A691C",
"4  c #9F6D1D",
"5  c #AB6008",
"6  c #A0680F",
"7  c #B5600F",
"8  c #A56E18",
"9  c #B86115",
"0  c #B86117",
"q  c #B96217",
"w  c #BC6415",
"e  c #B86118",
"r  c #BB7313",
"t  c #9D6E21",
"y  c #9E6E23",
"u  c #9E6E24",
"i  c #9F7029",
"p  c #AE7822",
"a  c #A17329",
"s  c #A4762A",
"d  c #AA7628",
"f  c #B57E27",
"g  c #A47831",
"h  c #AC7C31",
"j  c #CF5E09",
"k  c #D2650A",
"l  c #D7721F",
"z  c #B98129",
"x  c #AF8036",
"c  c #AC823D",
"v  c #B2843A",
"b  c #D38405",
"n  c #D7850B",
"m  c #D08116",
"M  c #D38614",
"N  c #DC8B11",
"B  c #EC960E",
"V  c #FA9900",
"C  c #FA9A00",
"Z  c #FB9B00",
"A  c #FD9C00",
"S  c #FE9E01",
"D  c #FC9D05",
"F  c #E99310",
"G  c #F39B12",
"H  c #FDA10C",
"J  c #FFA513",
"K  c #FFA61A",
"L  c #FEA61B",
"P  c #C6842B",
"I  c #DE9521",
"U  c #C68B32",
"Y  c #C78C33",
"T  c #C78D34",
"R  c #C38E39",
"E  c #DF8431",
"W  c #C8923C",
"Q  c #E3852D",
"!  c #EA9D2E",
"~  c #F19727",
"^  c #E78B31",
"/  c #E88E36",
"(  c #FFA820",
")  c #FDA929",
"_  c #FFAC2A",
"`  c #FCAC2E",
"'  c #FDAD31",
"]  c #FAAE37",
"[  c #FFB13E",
"{  c #AE8441",
"}  c #AE8541",
"|  c #AF8541",
" . c #AE8442",
".. c #AF8643",
"X. c #AF8644",
"o. c #B08541",
"O. c #B08642",
"+. c #B68A43",
"@. c #B28847",
"#. c #B28A4A",
"$. c #B68C49",
"%. c #B68D4B",
"&. c #B48D4E",
"*. c #BA904D",
"=. c #BD924F",
"-. c #B69256",
";. c #B89255",
":. c #BF985B",
">. c #D09542",
",. c #D49C48",
"<. c #D59C48",
"1. c #D49D4A",
"2. c #C09755",
"3. c #C19A5C",
"4. c #C89E5D",
"5. c #E08D49",
"6. c #E49046",
"7. c #E99945",
"8. c #E3934E",
"9. c #E4944E",
"0. c #E0994C",
"q. c #EB9E4B",
"w. c #E99C4C",
"e. c #E69A59",
"r. c #E19E5D",
"t. c #D1A057",
"y. c #DAA95E",
"u. c #FBAF41",
"i. c #FEB142",
"p. c #F8B44F",
"a. c #EAA054",
"s. c #E3A259",
"d. c #E0AB5C",
"f. c #E0AC5D",
"g. c #E1AD5D",
"h. c #ECAD59",
"j. c #F0B156",
"k. c #FDB754",
"l. c #FFB959",
"z. c #C49F63",
"x. c #C8A264",
"c. c #C7A46B",
"v. c #CAA468",
"b. c #CFA96B",
"n. c #D5AA66",
"m. c #D2AB6D",
"M. c #DDAE69",
"N. c #C2A472",
"B. c #C4A472",
"V. c #CBA973",
"C. c #DAB377",
"Z. c #DDB679",
"A. c #DDB67B",
"S. c #E7A266",
"D. c #FEBC63",
"F. c #FFBE66",
"G. c #FDBF6E",
"H. c #E3AB74",
"J. c #E0AC77",
"K. c #E8B47A",
"L. c #E4BD7C",
"P. c #E6BC7C",
"I. c #FEC370",
"U. c #B3A890",
"Y. c #CDB182",
"T. c #D7B681",
"R. c #D6B582",
"E. c #D8BB91",
"W. c #D9BD90",
"Q. c #D8BE91",
"!. c #D9BE91",
"~. c #D9BF94",
"^. c #D7BF99",
"/. c #E7BF81",
"(. c #DCC297",
"). c #DEC397",
"_. c #D7C29E",
"`. c #DCC398",
"'. c #DEC59B",
"]. c #DFC69C",
"[. c #EAC183",
"{. c #ECC385",
"}. c #FEC882",
"|. c #F2C888",
" X c #FFCB89",
".X c #E5C796",
"XX c #E3C99F",
"oX c #E5C89D",
"OX c #EFCE98",
"+X c #E9CA9C",
"@X c #FDCE95",
"#X c #FECE96",
"$X c #F0CE98",
"%X c #F0CF9B",
"&X c #F1CF9C",
"*X c #FFD099",
"=X c #D8C2A0",
"-X c #DECAAB",
";X c #DCCAAC",
":X c #E2CBA4",
">X c #E4CCA5",
",X c #E9CEA1",
"<X c #E4CDA9",
"1X c #EFD0A0",
"2X c #EAD1AB",
"3X c #EFD5AB",
"4X c #F1D4A3",
"5X c #FAD4A3",
"6X c #F2D6A9",
"7X c #F0D6AB",
"8X c #F3D6AA",
"9X c #FBD6A8",
"0X c #E7D2B0",
"qX c #E6D3B6",
"wX c #E9D7B8",
"eX c #EAD8B9",
"rX c #EAD8BA",
"tX c #ECDABE",
"yX c #F2D9B2",
"uX c #F4DDB9",
"iX c #FDDFBE",
"pX c #E9DAC1",
"aX c #EBDDC3",
"sX c #F0DFC3",
"dX c #F0DFC4",
"fX c #EEE0C9",
"gX c #EFE0C9",
"hX c #F0E4CE",
"jX c None",
/* pixels */
"jXjXjXjXjXjXjXjXjXjXjXjXjXjXjXjXjXjXjXjXjXjX",
"jXjXjXjXjXjXjXjXjXjXjXjXjXjXjXjXjXjXjXjXjXjX",
"jXjXjXjXjXjXjXjXjXjXjXjXjXjXjXjXjXjXjXjXjXjX",
"jXjXjXjXjXjXjXjXjXjXjXjXjXjXjXjXjXjXjXjXjXjX",
"jXjXjXjXg -.X. . . .o. . .o.o.o.#.a jXjXjXjX",
"jXjXjXi ^.<Xz.:.3.x.m.m.C.Z..XhXsXV.< jXjXjX",
"jXjXu _.dX4.8 = 6 p f z R W n.qXgX(.x.4 jXjX",
"jXy =XpX(.>XW.Q.~.`.'.'.:X>X0XaXhXQ.R.c.< jX",
"jXy ;X<X2X8X8X8XyX3XL.|.9X4XK.r.$X,XY.B.> jX",
"jX% 1 ;.uX&X$X$X1XoXE.5Xj.N.s.j 0.7X&.; $ jX",
"jXjXjXc tXrXrXwXwX+Xp.@XI U.J.5.S.H. .jXjXjX",
"jXjXjX& > 2 , 2 , ; B G.b + 5 9.iXe.7 jXjXjX",
"jXjXjXjXh t.T T T U n i.G N m h.*X@X8.jXjXjX",
"jXjXjXjXh M.,.,.,.,.M ) [ i.k.D.k.I. X6.jXjX",
"jXjXjXjXv Z.y.f.f.f.>.F ( V V V A H L }.l jX",
"jXjXjXjX+.:XR./.{.[.L.P ! ' _ J A D ` w.0 jX",
"jXjXjXjXs 2.@.%.=.*.%.d r / ^ ~ L ] w.0 jXjX",
"jXjXjXjXjXjXjXjXo . . X O @ # Q I.7.0 jXjXjX",
"jXjXjXjXjXjXjXjXjXjXjXjXjXjXjXE a.0 jXjXjXjX",
"jXjXjXjXjXjXjXjXjXjXjXjXjXjXjXk w jXjXjXjXjX",
"jXjXjXjXjXjXjXjXjXjXjXjXjXjXjX* jXjXjXjXjXjX",
"jXjXjXjXjXjXjXjXjXjXjXjXjXjXjXjXjXjXjXjXjXjX"
};
