/* XPM */
static const char *bookmark_add[] = {
/* columns rows colors chars-per-pixel */
"22 22 202 2 ",
"   c #76996E2DBBE3",
".  c #771B6E9CBCD4",
"X  c #783D6F98BBFA",
"o  c #78B76FE0BD7E",
"O  c #792270CAB925",
"+  c #7BDF72FBBC24",
"@  c #7BEF731EBD50",
"#  c #7BA172FABF9C",
"$  c #7C11730ABE22",
"%  c #7CD17402BDB0",
"&  c #7D26744FBF7A",
"*  c #7E4C764CBF6E",
"=  c #7F41772FBFAD",
"-  c #7EA37564C183",
";  c #800B77B7BDCC",
":  c #80EF7887BDB9",
">  c #80B7783DBF9F",
",  c #85E37E29BEBA",
"<  c #8266799FC1EE",
"1  c #814F78C4C412",
"2  c #83E87B8AC317",
"3  c #84357BEEC39F",
"4  c #84B87C5BC3FE",
"5  c #851E7CBAC429",
"6  c #86DC7EBCC2A3",
"7  c #86FD7EC3C3CA",
"8  c #87817F88C3E5",
"9  c #81AD7917C464",
"0  c #85257CD2C45C",
"q  c #85AB7D31C49C",
"w  c #85937D25C5F2",
"e  c #86AE7E4DC502",
"r  c #87977F48C533",
"t  c #86BC7E43C546",
"y  c #87987F32C5B5",
"u  c #88097FA6C57C",
"i  c #884A7FF7C981",
"p  c #87EA80F0BBE9",
"a  c #892A81C8BFE6",
"s  c #8AF683D1BF1C",
"d  c #8974818EC0D0",
"f  c #88268056C401",
"g  c #8B428484C059",
"h  c #89E081BAC60D",
"j  c #8B4383A5C506",
"k  c #88FB80C2C744",
"l  c #886F8086C7D5",
"z  c #8AB98266C7A7",
"x  c #8C2A849CC4B3",
"c  c #88D88064C9A9",
"v  c #8A628288C92A",
"b  c #8BD68423C8D5",
"n  c #8CAA83D5CCF7",
"m  c #8CD28446CCE5",
"M  c #8D658511CD00",
"N  c #8CEC8457CD5F",
"B  c #8DD88523CDB3",
"V  c #8F7D8733CCD3",
"C  c #90BD8A6AC1B2",
"Z  c #932D8DCDC2A2",
"A  c #94018E2DC425",
"S  c #94968E71C074",
"D  c #952E8F67C306",
"F  c #90AE8952C5C3",
"G  c #92788C09C4B4",
"H  c #92F88CAEC4A3",
"J  c #93C88D33C607",
"K  c #93A68C5BC76B",
"L  c #94768E3CC4EF",
"P  c #953C8F4AC61F",
"I  c #90138771CDBA",
"U  c #91238989C906",
"Y  c #90628829C97D",
"T  c #931D8B2FCC2D",
"R  c #96B08FDBC9B9",
"E  c #959A8E51CAAF",
"W  c #92D58ABDCC8C",
"Q  c #93888B7DCDA4",
"!  c #90E98843CEF4",
"~  c #915F889ACF30",
"^  c #91A088E4CF7A",
"/  c #92118957CFAA",
"(  c #944E8C68CEE5",
")  c #95F48E4ECF0B",
"_  c #977D8F5CD046",
"`  c #974E918DC37F",
"'  c #97359107C495",
"]  c #979091D7C45C",
"[  c #979A91B5C599",
"{  c #98C1930DC66B",
"}  c #98799233C80A",
"|  c #9B139501CA26",
" . c #9D3E97D8C9D4",
".. c #9A3C9295CF38",
"X. c #9AC6937BCF3A",
"o. c #9B6C945DCE66",
"O. c #9F8A99E2CB74",
"+. c #95578CC4D112",
"@. c #95CA8D32D180",
"#. c #969A8E62D1C2",
"$. c #97568F11D1FF",
"%. c #97C68F90D291",
"&. c #985B90AFD0D1",
"*. c #992F916DD233",
"=. c #9AA392ACD09E",
"-. c #9AF6933CD22A",
";. c #99CB91D7D330",
":. c #9990919DD369",
">. c #9A1E924FD3AF",
",. c #9C7494D0D2DA",
"<. c #9D5D9587D3DD",
"1. c #9E1396D1D3B9",
"2. c #9EB19723D42D",
"3. c #9F4797E2D42B",
"4. c #9DB095B5D50F",
"5. c #9E089628D537",
"6. c #9E799671D545",
"7. c #9F9897E5D465",
"8. c #9EBF96C8D574",
"9. c #9F369730D5C2",
"0. c #9F3F992ED088",
"q. c #9FD29852D3AF",
"w. c #A001984BD4A7",
"e. c #A0359ABDCB43",
"r. c #A04A9A32CF18",
"t. c #A0B39A76CFA4",
"y. c #A1C99B18D1A2",
"u. c #A2989BF2D1D2",
"i. c #A0BF9915D518",
"p. c #A07A987ED5BF",
"a. c #A19C99B4D57D",
"s. c #A2469AC4D64B",
"d. c #A17899A7D682",
"f. c #A2899AA4D6DC",
"g. c #A2FA9B32D702",
"h. c #A2409A8BD815",
"j. c #A3C49C57D6F0",
"k. c #A4169C56D758",
"l. c #A5D09F5ED62C",
"z. c #A4409CA2D7BB",
"x. c #A5EF9EDFD6F7",
"c. c #A5B59E3ED817",
"v. c #A65E9F4DD84F",
"b. c #A72DA00AD81C",
"n. c #A5EB9E63D85A",
"m. c #A63D9ED8D86E",
"M. c #A7719FF3D938",
"N. c #A6DCA138D006",
"B. c #A5FAA053D103",
"V. c #A73AA15ED44F",
"C. c #A735A0E7D5A9",
"Z. c #AB20A5B6D4A7",
"A. c #AB88A5A8D746",
"S. c #AC6DA6B6D7B7",
"D. c #A7C4A0A7D9AA",
"F. c #A85FA15DD909",
"G. c #A847A0EFD9A0",
"H. c #A8D6A1CAD9AE",
"J. c #A97FA298D9E7",
"K. c #AB09A421DADC",
"L. c #AB5CA483DABA",
"P. c #ABDDA579DACA",
"I. c #ACBEA621DB42",
"U. c #ACA0A66CDB40",
"Y. c #AD17A675DB8E",
"T. c #ADB8A7A2DBD7",
"R. c #AE42A819DC06",
"E. c #AE5FA91FD85B",
"W. c #AEB1A8A2DC1B",
"Q. c #AF08A94BDC22",
"!. c #AF84A96CDB64",
"~. c #AEC2A8ECDC70",
"^. c #AF8BA99ADCA7",
"/. c #B03AAACCDA91",
"(. c #B3F0AEDDDBF0",
"). c #B091AABFDD02",
"_. c #B17CABADDD49",
"`. c #B1F6AC11DDE6",
"'. c #B2B6ACE9DE04",
"]. c #B35EADA6DE2E",
"[. c #B385ADCCDE76",
"{. c #B482AEACDF15",
"}. c #B55AAFFFDF11",
"|. c #B575AFF3DF8F",
" X c #B609B0A6DFB5",
".X c #B673B10FDFC9",
"XX c #B70CB1B8DFFD",
"oX c #B836B30DE03F",
"OX c #B788B241E069",
"+X c #B8F5B3C0E07E",
"@X c #B99EB476E11B",
"#X c #BA28B502E16C",
"$X c #BA3BB51BE185",
"%X c #BAA5B56CE18C",
"&X c #BBB3B699E1E9",
"*X c #BC5CB72FE1EE",
"=X c #BCC0B796E248",
"-X c #BCD4B7BBE27B",
";X c #BD4FB81BE269",
":X c #BD3BB838E29B",
">X c #BD6FB86DE2BD",
",X c None",
/* pixels */
",X,X,X,X,X,X,X,X,X,X,X,X,X,X,X,X,X,X,X,X,X,X",
",X,X,X,X,X,X,X,X,X,X,X,X,X,X,X,X,X,X,X,X,X,X",
",X,X,X,X,X,X,X,X,X,X,X,X,X,X,X,X,X,X,X,X,X,X",
",X,XH.P.T.T.W.W.T.,X,X,X,X,X,X,X,X,X,X,X,X,X",
",X,Xb.D.H.H.H.H.H.D.,X,X,X,X,X,X,X,X,X,X,X,X",
",Xb.k.s.s.7.s.w.q.q.<.<.<.<.&.&.) ^ Q ) &.,X",
"%X;X;X;X%X;X;X%X%X%XoX X X'.'._.^.T.P.P.T.P.",
"+X%X;X;X>X>X%X>X%X(.e.O./.|.'.'._.^.T.T.T.T.",
"oX%XoX%XoXoXoXZ.Z.E.[ [ Z.C.t.W.T.T.T.T.L.T.",
"|. X X XoXoXZ.s ` O.[ [ | L Z q.T.T.L.L.L.H.",
"W.'.'.'.oX(.S.} D Z Z L Z H R b.H.H.H.M.H.b.",
"T.W.W.W.W.V.t.} C H u.u.H F E X.<.M.M.M.M.s.",
"C.H.H.H.H.E p s g o.D.M.&.x j h ( s.s.s.s.s.",
"s.s.s.b.M.Y d d , Y s.7.Y 8 h h ^ 7.7.7.7.<.",
"&.4.7.7.7.7.<.x > & 8 8 > 1 h &.:.:.&.&.:.%.",
",X%.#.@.%.&.x O + & @ @ & - - v @.@.%.( %.^ ",
",X+.^ ^ ^ ^ N > & h . @ w 9 1 ^ ^ ^ ^ ^ ^ ,X",
",Xn n N N n N M n v   . v N N N M M N N n ,X",
",Xw 3 w 8 w 8 w w h 8 f w w w w 8 8 1 3 w ,X",
",X,X,X,X,X,X,X,X,X,X,X,X,X,X,X,X,X,X,X,X,X,X",
",X,X,X,X,X,X,X,X,X,X,X,X,X,X,X,X,X,X,X,X,X,X",
",X,X,X,X,X,X,X,X,X,X,X,X,X,X,X,X,X,X,X,X,X,X"
};
