/* XPM */
static const char *wcmd[] = {
/* columns rows colors chars-per-pixel */
"48 48 256 2 ",
"   c #020101",
".  c #0B0201",
"X  c #09080B",
"o  c #140302",
"O  c #180A07",
"+  c #19100C",
"@  c #1A1415",
"#  c #100C11",
"$  c #260805",
"%  c #350E05",
"&  c #291309",
"*  c #281C18",
"=  c #36190D",
"-  c #2C231D",
";  c #3D250F",
":  c #261C22",
">  c #2A2324",
",  c #332C2D",
"<  c #372928",
"1  c #3C3335",
"2  c #3D373B",
"3  c #4B0B0B",
"4  c #520A08",
"5  c #591212",
"6  c #4F1B0B",
"7  c #760806",
"8  c #661A1A",
"9  c #7E1D1D",
"0  c #6A1308",
"q  c #482915",
"w  c #582D15",
"e  c #422D25",
"r  c #49342A",
"t  c #453739",
"y  c #523C36",
"u  c #6C2623",
"i  c #772222",
"p  c #6E3725",
"a  c #683918",
"s  c #79461A",
"d  c #5B453C",
"f  c #674329",
"g  c #775238",
"h  c #6C4933",
"j  c #453E43",
"k  c #57464A",
"l  c #594F55",
"z  c #77554A",
"x  c #5E5862",
"c  c #797377",
"v  c #6E696E",
"b  c #860A08",
"n  c #9D0504",
"m  c #9C0C0B",
"M  c #980A08",
"N  c #9B110D",
"B  c #831414",
"V  c #811919",
"C  c #9C1414",
"Z  c #8F1107",
"A  c #A30604",
"S  c #AA0703",
"D  c #A60805",
"F  c #AC0905",
"G  c #A30B09",
"H  c #A90D0A",
"J  c #B40B06",
"K  c #BB0D06",
"L  c #B80B05",
"P  c #A9140D",
"I  c #BD130C",
"U  c #B4140B",
"Y  c #A21412",
"T  c #A31B1B",
"R  c #AB1A16",
"E  c #B71C17",
"W  c #B92B14",
"Q  c #B43214",
"!  c #B22517",
"~  c #AB2826",
"^  c #B62924",
"/  c #B43836",
"(  c #AF3734",
")  c #92240D",
"_  c #C10E06",
"`  c #C90E05",
"'  c #C41007",
"]  c #CB1107",
"[  c #C51209",
"{  c #CC1309",
"}  c #CA1B0C",
"|  c #C61A0A",
" . c #D3150A",
".. c #DB160A",
"X. c #D5190C",
"o. c #DC1A0D",
"O. c #D21307",
"+. c #C21C15",
"@. c #C71B13",
"#. c #D31E12",
"$. c #E31C0D",
"%. c #EC1D0D",
"&. c #F01F0E",
"*. c #E71E10",
"=. c #CA240E",
"-. c #D6230F",
";. c #C92616",
":. c #D92817",
">. c #C7351C",
",. c #D83614",
"<. c #EC200F",
"1. c #F1210F",
"2. c #ED2312",
"3. c #E22D1D",
"4. c #E42A17",
"5. c #F22512",
"6. c #F42A16",
"7. c #F82C17",
"8. c #F42C1A",
"9. c #F92E19",
"0. c #E33618",
"q. c #F33216",
"w. c #F6331D",
"e. c #FA311A",
"r. c #F53C19",
"t. c #C32B25",
"y. c #C8332A",
"u. c #D0362A",
"i. c #D93628",
"p. c #D0352B",
"a. c #E43A2E",
"s. c #F93621",
"d. c #FB3924",
"f. c #F73B29",
"g. c #E63E32",
"h. c #834F1D",
"j. c #8D5129",
"k. c #995A25",
"l. c #8E4B29",
"z. c #B3542B",
"x. c #9A653A",
"c. c #A86725",
"v. c #BA6427",
"b. c #A46638",
"n. c #B16E39",
"m. c #DE4A1A",
"M. c #D7511D",
"N. c #E6491B",
"B. c #F4431B",
"V. c #F54A1E",
"C. c #E8541E",
"Z. c #F4541E",
"A. c #D34328",
"S. c #D64A38",
"D. c #CA4A31",
"F. c #F84A25",
"G. c #EC5726",
"H. c #F65C22",
"J. c #F85A22",
"K. c #EC463A",
"L. c #F64434",
"P. c #FB4A36",
"I. c #FA4E3B",
"U. c #F64636",
"Y. c #F9513F",
"T. c #EB4B2A",
"R. c #CC7F39",
"E. c #D57532",
"W. c #D66F2B",
"Q. c #FB6326",
"!. c #F56625",
"~. c #F97429",
"^. c #FA7A2C",
"/. c #F4782A",
"(. c #E27A33",
"). c #995D45",
"_. c #B94743",
"`. c #AE5D59",
"'. c #BD5A55",
"]. c #B85856",
"[. c #AF4E4C",
"{. c #BB7E48",
"}. c #AC734F",
"|. c #9B7F71",
" X c #AB6360",
".X c #BC6562",
"XX c #BB7674",
"oX c #936445",
"OX c #C54D49",
"+X c #C65B57",
"@X c #D05D58",
"#X c #F85848",
"$X c #F35F52",
"%X c #EB5245",
"&X c #C47844",
"*X c #C1605B",
"=X c #F46457",
"-X c #C86764",
";X c #CC7674",
":X c #D37B79",
">X c #CD6C68",
",X c #EF6C60",
"<X c #D9812C",
"1X c #FB842E",
"2X c #FC8B2F",
"3X c #E58A3A",
"4X c #FC8D31",
"5X c #F38132",
"6X c #FE9433",
"7X c #FE9A34",
"8X c #F69537",
"9X c #FFA036",
"0X c #D7817D",
"qX c #CF976B",
"wX c #E4925C",
"eX c #A78C89",
"rX c #C88C8A",
"tX c #D68A87",
"yX c #C99C9A",
"uX c #D79795",
"iX c #CE908E",
"pX c #E19A96",
"aX c #D9AD96",
"sX c #CAAAA9",
"dX c #D7A9A7",
"fX c #C9B9B8",
"gX c #DABAB7",
"hX c #DABCB8",
"jX c #D8B8B7",
"kX c #E5BCBB",
"lX c #E4AFAC",
"zX c #D9C8BA",
"xX c #C8C4C4",
"cX c #DAC6C5",
"vX c #DBCAC8",
"bX c #CFD1D1",
"nX c #D7D8D8",
"mX c #E6C4C4",
"MX c #EBCDCC",
"NX c #E8CAC9",
"BX c #EDDBDB",
"VX c #EBD4D3",
"CX c #F0DDDC",
"ZX c #F1D1D0",
"AX c #EEE0DF",
"SX c #E3E4E4",
"DX c #ECECEC",
"FX c #E9E7E7",
"GX c #F3ECEC",
"HX c #F2E6E6",
"JX c #EFF1F1",
"KX c #F3F3F4",
"LX c #FCFDFD",
"PX c #F8F7F7",
"IX c #F5F0EF",
"UX c None",
/* pixels */
"UXUXUXUXUXUXUXUXUXUXUXUXUXUXUXUXUXUXUXUXUXUXUXUXUXUXUXUXUXUXUXUXUXUXUXUXUXUXUXUXUXUXUXUXUXUXUXUX",
"UXUXUXUXUXUXUXUXUXUXUXUXUXUXUXUXUXUXUXUXUXUXUXUXUXUXUXUXUXUXUXUXUXUXUXUXUXUXUXUXUXUXUXUXUXUXUXUX",
"UXUXUX,X=X=X=X$X$X#X#X#X#X#XY.Y.I.I.I.I.P.P.P.P.P.I.I.Y.I.#X#X#X#X$X#X$X=X=X=X,X,XUXUXUXUXUXUXUX",
"UXUX#Xs.6.6.6.7.8.w.w.w.s.s.s.s.d.d.d.d.s.d.d.d.d.d.d.d.f.d.f.f.f.f.L.L.L.L.U.U.U.#X$XUXUXUXUXUX",
"UX$X8.%.&.&.&.&.&.5.5.5.6.6.6.6.7.7.9.9.9.9.e.e.9.e.7.7.7.7.6.6.6.5.5.1.5.&.&.&.1.<.8.%XUXUXUXUX",
"UX%X<.%.%.&.&.&.&.5.5.5.6.2.6.6.6.7.7.9.e.9.e.e.7.7.7.7.7.6.6.6.5.6.5.5.5.5.&.<.%.%.&.g.u UXUXUX",
"UXK.*.%.%.%.<.<.2.5.5.5.5.6.6.6.6.6.7.7.7.w.B.F.Q.Q.Q.Q.Q.Q.e.q.q.q.q.q.q.r.q.B.J.H.Z.T.p UXUXUX",
"UXK.*.%.%.<.<.<.<.<.2.2.5.5.5.6.6.6.6.6.7.B.J.1X7X7X6X6X6X6XH.V.B.B.B.V.~.^.Z./.7X9X7X5Xl.UXUXUX",
"UXg.*.$.$.%.%.%.*.<.2.2.2.2.2.6.2.6.6.6.8.V./.6X6X4X4X1X6X6X~.F.Q.Z.J.^.6X4XQ.^.7X7X7X6Xk.UXUXUX",
"UXg.$.$.$.%.%.%.*.*.<.2.2.2.2.6.2.6.2.q.6.V.2X7X6X1X^.^.1X6X1XQ.^.1X2X8X9X6X~.6X7X6X4X6Xk.UXUXUX",
"UXa.$.$.$.$.$.*.*.*.*.*.*.<.2.2.2.4.6.2.6.Z.6X7X4X1X^.^.^.6X6X!.1X7X7X7X9X8X/.7X6X2X(.b.e UXUXUX",
"UXa.......$...$.$.$.4.3.3.3.3.3.3.3.3.3.3.T.8X9X4X&X).z.E.4X7X^.1X7X7X8XR.g v.6X6X(.z , + UXUXUX",
"UXa.o...o.....$.$.:.pXhXhXjXgXgXhXhXhXgXhXhXzXaXoXl v x r k.8X6X^.7X6Xn.t - v.6X4X&Xc < ; UXUXUX",
"UXi.........o.o...a.NXLXLXLXLXLXLXLXLXLXLXLXKXaXn.j.d l 1 * c.7X1X7X3Xk j * W.6X4X}.v ; s UXUXUX",
"UXi. .............S.xXSXKXcXcXcXvXcXvXcXvXvXvXwX7X8XW.f , @ q 8X2X6X{.l v + v.4X3X|.2 s h.UXUXUX",
"UX3... ..... .....@XSXJXhXD.y.p.u.u.u.u.A.A.S.G.6X2X~.E.t @ & <X1X4Xb.l c # s 1XwXeX: k.a UXUXUX",
"UXi. . . . . . .X.0XbXKXdX#.o.o.$.o.$.o.$.4.4.0.~.!.H.5Xg : + v.2X7Xx.j x # q W.qXc & z.w UXUXUX",
"UX:. . . .O.O.O.} yXnXDXuXX.o.o.o.o.o.o.-.*.4.,.N.N.C.2Xx.- O c.4X8Xg 1 2 : : b.}.> & A.q UXUXUX",
"UX:.O.{ O.{ { O.;.hXIXFX+XO.X.X.X.o.o.o.o.-.-.4.,.0.C.2Xx.1 + c.9X3Xy 1 t - , g y X 0 A.q UXUXUX",
"UX;.{ { O.{ O.] y.fXSXHX_.O. .X.X.X.X.X.X.X.o.-.4.,.C.2Xb.2 * c.9X{.t - j.< j k * X 0 >.= UXUXUX",
"UX;.{ { { { { O.OXnXDXBXy.O.{ { {  .X.X.{ X.X.X.-.,.m.2Xb.1 - k.8X{.j * z.p , 1 X X ) >.= UXUXUX",
"UX;.{ { ] ] [ ' ;XnXKXsX+.` O.] { { { { { { } X.-.-.m.5Xn.1 , f 8XqX, & M.h.: : X O Q >.& UXUXUX",
"UX@.[ [ ` ] ' +.rXbXKXuX_ ` ' ' ` ] ` ` ] ` { } } -.,.C.E.r - e <Xd X 5 m.k.- @   O Q >.& UXUXUX",
"UX@.` ` ' ` ' +.sXDXGXeX].'.'.'.'.'.'.*XOX` ] [ | | =.=.W.f @ # = . % Q m.M.r #   $ =.Q & UXUXUX",
"UX@._ _ _ _ _ y.fXKXKXbXJXJXKXKXKXKXJXJX:X_ _ ` | | =.=.C.l.O . O 0 W ,.,.m.j.X   6 ;.W & UXUXUX",
"UX+._ _ _ _ _ _.xXFXJXDXKXKXKXKXKXKXKXDX_._ _ _ ' ' [ | | =.Z Z U | | | =.=.Q % 4 U } R O UXUXUX",
"UX+.K _ K K K -XSXJXvX X`.`.`.`.`.`.`..X^ ' _ _ _ @.t.@.' ' ' ' _ @.t.+.K K K F L ' _ P o UXUXUX",
"UX+.K K K K L rXbXPXyXK K K K K K K _ K K I K K K tXCXpXI K K K +.pXCX0XK ' ' K K K _ Y o UXUXUX",
"UXI K K K K E sXbXDX;XL K K K K K K K K K K K L @.mXLXZX;.K K K OXGXLX0XK K K K K K I N o UXUXUX",
"UXK K K K L ^ fXJXDX[.L U K K K K K L K L L K L t.CXLXCX^ K K E lXLXIX@XL L K L L K K N o UXUXUX",
"UXJ J J J L _.xXSXFX/ J J L K J K J L J L L L L OXHXLXHX_.L L +XGXLXAXy.L L L L L L K M o UXUXUX",
"UXJ J J J J *XnXFXcX^ J J J J J J J J J J L J L :XPXLXPX@XL E kXPXPXMXE L J J L J L L Z o UXUXUX",
"UXJ J J L H XXnXLXsXP J J L J J L F J L J J L F tXKXGXPX:XF >XGXHXPXpXU J J J J J J F M . UXUXUX",
"UXJ J H J P yXbXJXrXF J J F F H L F F J J F S E mXBXlXPXuX^ MXVXjXPX:XS J J F J J J L b . UXUXUX",
"UXF H F D R fXJXFX.XH F F F F L L F F F F J F ^ BXNXtXPXkXtXGXtXmXKX+XS J F F J F F J b . UXUXUX",
"UXF F F D ( fXSXFX( D F F F F F F F F F F F S OXHXdX+XGXGXHXmX_.BXAXt.S F F F F F F F b . UXUXUX",
"UXF D D S [.xXSXvX~ S D F F F D D F F F F F S ;XPX:X~ CXLXKX@XOXGXMXE D F F S S F F S b . UXUXUX",
"UXF D D A XXDXDXsXY S D D D D D D S D D D D D iXKX+XR MXLXlXR ;XPXpXH D D D D D D F S 7   UXUXUX",
"UXD D D D ].XX`.[.G A S A D S D A A A D S D R kXAX/ H +X;X/ D iXPX:Xn D D D D D D A D 7   UXUXUX",
"UXD A A A A A A D G A A A D A D D A A D A A ~ BXZXR A A A A R kXPX+XA A D D D A A A A 7 . UXUXUX",
"UXG n n A A n n A A G A A A A A G A A A A A ( MXuXG A A A A T mXNX~ A A A A A A D A A 7   UXUXUX",
"UXG n n n A n n n n n n n n A n n A n n A n Y ~ ~ n n n n G G ~ ~ G n n n A n A A A n 7   UXUXUX",
"UXn n n n n n n n n n n n n n n n n n n n n n n n n n n n n n n n n n n n n n A n n A 0   UXUXUX",
"UXm n n n n M n n n n n n n n n n n n A n n n n n n n n n n n n n n n n n n n n n n n 4   UXUXUX",
"UXUXN N N N N C C C C C C T T T T T T T T ~ T T T Y T Y Y Y Y C m m m m m m n m n n b $   UXUXUX",
"UXUXUXUX4 3 3 3 3 3 5 5 5 5 8 5 8 8 u 8 i i i i i i 9 9 9 9 9 V V V B B B B B b B 7 $ UXUXUXUXUX",
"UXUXUXUXUXUXUXUXUXUXUXUXUXUXUXUXUXUXUXUXUXUXUXUXUXUXUXUXUXUXUXUXUXUXUXUXUXUXUXUXUXUXUXUXUXUXUXUX",
"UXUXUXUXUXUXUXUXUXUXUXUXUXUXUXUXUXUXUXUXUXUXUXUXUXUXUXUXUXUXUXUXUXUXUXUXUXUXUXUXUXUXUXUXUXUXUXUX"
};
