/* XPM */
static const char *wcmd[] = {
/* columns rows colors chars-per-pixel */
"22 22 216 2 ",
"   c #0D090A",
".  c #1C0202",
"X  c #181417",
"o  c #230202",
"O  c #2B0301",
"+  c #340503",
"@  c #3C0806",
"#  c #291C14",
"$  c #3A2A20",
"%  c #4B0C07",
"&  c #481009",
"*  c #55180D",
"=  c #5E1E10",
"-  c #660606",
";  c #610C06",
":  c #442F1E",
">  c #4F2D1A",
",  c #573312",
"<  c #7E210E",
"1  c #652312",
"2  c #662F13",
"3  c #69351F",
"4  c #402E20",
"5  c #44322E",
"6  c #4D382F",
"7  c #573420",
"8  c #54352B",
"9  c #523C2D",
"0  c #653E2E",
"q  c #703922",
"w  c #5B4132",
"e  c #6C4029",
"r  c #784922",
"t  c #7B5139",
"y  c #4F454B",
"u  c #5D4C4C",
"i  c #6D5544",
"p  c #8D0605",
"a  c #830D0C",
"s  c #8C0A0A",
"d  c #930704",
"f  c #9E0504",
"g  c #9C0806",
"h  c #920B0B",
"j  c #9F0908",
"k  c #92100F",
"l  c #9A1608",
"z  c #871110",
"x  c #8C1414",
"c  c #921414",
"v  c #921817",
"b  c #911818",
"n  c #A30603",
"m  c #AC0602",
"M  c #A50805",
"N  c #AC0905",
"B  c #A10C0A",
"V  c #B30A05",
"C  c #BA0C05",
"Z  c #B70F09",
"A  c #B90F09",
"S  c #AB1D0D",
"D  c #B4110C",
"F  c #BB140D",
"G  c #A81B18",
"H  c #BC1610",
"J  c #BE1A14",
"K  c #90220F",
"L  c #A12C14",
"P  c #B6221E",
"I  c #A33614",
"U  c #BC2621",
"Y  c #BB342F",
"T  c #B33735",
"R  c #B33935",
"E  c #B53E3B",
"W  c #BD3F3C",
"Q  c #C30D04",
"!  c #CC0E03",
"~  c #CD1106",
"^  c #C3130A",
"/  c #CA1309",
"(  c #CE1F0D",
")  c #D01307",
"_  c #D2150A",
"`  c #DB1609",
"'  c #D31A0C",
"]  c #DB190C",
"[  c #CC1D14",
"{  c #E41C0D",
"}  c #EB1E0D",
"|  c #E81F10",
" . c #CB210C",
".. c #CE290F",
"X. c #DD2510",
"o. c #D92C11",
"O. c #D4251B",
"+. c #D8271A",
"@. c #DA2B1C",
"#. c #EC210F",
"$. c #F0210F",
"%. c #EE2311",
"&. c #F12512",
"*. c #F42A15",
"=. c #F92F19",
"-. c #E33B17",
";. c #EC371F",
":. c #F33816",
">. c #F73619",
",. c #F9351B",
"<. c #F93C1C",
"1. c #CA2A22",
"2. c #DB2B20",
"3. c #C0332F",
"4. c #D33025",
"5. c #C83E37",
"6. c #CA3E39",
"7. c #E02F24",
"8. c #E43427",
"9. c #E8382B",
"0. c #FB3C27",
"q. c #F63B2A",
"w. c #F93C29",
"e. c #884F24",
"r. c #964D21",
"t. c #A65F2E",
"y. c #BB423D",
"u. c #99612C",
"i. c #8E643F",
"p. c #A66425",
"a. c #B06322",
"s. c #BF702F",
"d. c #AB6D3A",
"f. c #DA461B",
"g. c #F54B1E",
"h. c #C6453F",
"j. c #CA423B",
"k. c #E54421",
"l. c #F6402F",
"z. c #E34033",
"x. c #F44334",
"c. c #D36A2C",
"v. c #D97E2B",
"b. c #CD7D39",
"n. c #E26B29",
"m. c #F76424",
"M. c #F66B26",
"N. c #FB6A28",
"B. c #F9742A",
"V. c #FA7D2D",
"C. c #855C45",
"Z. c #8C5B45",
"A. c #B64E4C",
"S. c #BC4F4E",
"D. c #B55654",
"F. c #AE7146",
"G. c #B87B50",
"H. c #C94742",
"J. c #CC4B46",
"K. c #CA5550",
"L. c #C35A58",
"P. c #E74C41",
"I. c #C4625E",
"U. c #C46261",
"Y. c #C86968",
"T. c #D7716D",
"R. c #CA7874",
"E. c #DA7772",
"W. c #D57C77",
"Q. c #DA7871",
"!. c #E47D74",
"~. c #FC852E",
"^. c #FC882E",
"/. c #E48433",
"(. c #E48738",
"). c #F68630",
"_. c #FA8730",
"`. c #F68E36",
"'. c #FD8A31",
"]. c #FC9533",
"[. c #E58B42",
"{. c #E78979",
"}. c #E8A771",
"|. c #C08180",
" X c #CB8583",
".X c #D18483",
"XX c #D68E8C",
"oX c #DD918E",
"OX c #D69593",
"+X c #DBA09C",
"@X c #E2AF97",
"#X c #CFAAA9",
"$X c #DCA3A2",
"%X c #D6A9A7",
"&X c #D9B5B3",
"*X c #E1ADAB",
"=X c #E2B1AF",
"-X c #E3B7B6",
";X c #E0C1BF",
":X c #D7C6C5",
">X c #DCCAC9",
",X c #DDD4D3",
"<X c #DED9D9",
"1X c #E6C5C3",
"2X c #E6C9C6",
"3X c #E6CAC8",
"4X c #EBCBCA",
"5X c #EBD0CF",
"6X c #E3D3D2",
"7X c #EED7D6",
"8X c #E0DADA",
"9X c #F0DBDA",
"0X c #E6E6E6",
"qX c #EBEBEA",
"wX c #F3E1E1",
"eX c None",
/* pixels */
"eXeXeXeXeXeXeXeXeXeXeXeXeXeXeXeXeXeXeXeXeXeX",
"eXx.q.q.q.q.w.q.0.0.0.0.w.w.w.l.l.l.x.P.eXeX",
"eX%.} $.&.&.*.*.=.=.,.<.<.>.=.*.*.&.*.8.eXeX",
"9.| } } %.&.&.*.*.,.N.'.~.V.g.g.m.m.~.~.r.eX",
"8.{ { { } } } &.#.:.^.^.V.'.B.~.].).]./.r eX",
"7.] { { 9.!.!.!.{.{.}.F.Z.s._.].d.t.`.C.# eX",
"2.] ] ` E.qX2X1X1X1X@Xb.t $ v.(.u e.[.i , eX",
"+.' _ _ OX:X4.+.+.@.k.M.c.$ t.(.y 7 G.0 2 eX",
"O./ ~ [ &XOX' ` ] ' X.-.n.9 p.d.5 5 6 1 1 eX",
"[ / ~ 1.,XW.! ~ ) _ ' o.n.w u.i.3 8 X < = eX",
"[ / ! h.8XR.5.5.j.1./  .f.e : > I q   K * eX",
"^ Q Q I.0X,X6X6X6XK.Q ^  .L ; l ..I % S & eX",
"H A A  X>Xy.Y Y Y J Q J.T.^ ^ Q.j.C C D @ eX",
"D C F #X%XZ C C C C C oX4XF J.wXH.V C V + eX",
"V V P :X XV V V V V D =X9XY *X7XU V V N + eX",
"V m T <XI.m V V N V P -X4XXX1X*XD V V M O eX",
"N m D.<XE m m m N m W $X-X4XOXXXm M N f O eX",
"M n A.|.G M M M M n U..XL.U.OXY.n M n g o eX",
"M n n f n n n n n f U.S.n n  XT n n n d o eX",
"j f g f g f f f f f j M f f M j n f f p . eX",
"eXs a a a z x x x b b v c c c h h h h - eXeX",
"eXeXeXeXeXeXeXeXeXeXeXeXeXeXeXeXeXeXeXeXeXeX"
};
