/* XPM */
static const char *btn_paste[] = {
/* columns rows colors chars-per-pixel */
"22 18 215 2 ",
"   c #3DDC3E3D3CDF",
".  c #4458449643EB",
"X  c #464B468B44C1",
"o  c #47A548004480",
"O  c #4E6D4EC249EF",
"+  c #508451244C53",
"@  c #51CD52374DB9",
"#  c #521652604E61",
"$  c #5A485B005602",
"%  c #5BF55BF15B18",
"&  c #5F8C5F755EC5",
"*  c #5FE6604B5BA6",
"=  c #60FA61805AEF",
"-  c #61BB61D55DD6",
";  c #5FEE60075FAA",
":  c #6163617C5F49",
">  c #64F865D25EE3",
",  c #605A60666046",
"<  c #6290631D6002",
"1  c #639863AA6380",
"2  c #678467B364C3",
"3  c #677C67996781",
"4  c #6946695166C2",
"5  c #6A4B6A4E67A1",
"6  c #68D068E468C9",
"7  c #68E968EE68B3",
"8  c #69A169A36967",
"9  c #6B3C6B3F6B30",
"0  c #6E3F6E3B6B5C",
"q  c #6DAC6DAB6D73",
"w  c #6FD670716A47",
"e  c #7024701B6FE7",
"r  c #741E74D36E88",
"t  c #712D714A7132",
"y  c #72727265723A",
"u  c #73A5739073C3",
"i  c #73F174277438",
"p  c #7495748B7499",
"a  c #76D1772F740B",
"s  c #775777B47597",
"d  c #769376B87673",
"f  c #7763776A775E",
"g  c #791A799C7291",
"h  c #7A897B0A77E8",
"j  c #7B997C687412",
"k  c #7888789D7887",
"l  c #7915791678EC",
"z  c #795179527932",
"x  c #79F87A0A7A05",
"c  c #7A427A507A26",
"v  c #7BC57C0A7901",
"b  c #7C5B7C7D79FB",
"n  c #7C4C7C5C7C2E",
"m  c #7DB97DB27C7D",
"M  c #7DA37DA57D96",
"N  c #7F1B7FA87CF1",
"B  c #7EC87EC77EC9",
"V  c #7EF37F2C7ED1",
"C  c #7F727F677F7A",
"Z  c #7F1680047777",
"A  c #8051810F786A",
"S  c #8172827179D2",
"D  c #840E85017C76",
"F  c #852B861D7C9A",
"G  c #80D780BE80A2",
"H  c #810680F080F2",
"J  c #8185817D8174",
"K  c #81C581CD823E",
"L  c #83988392839A",
"P  c #8408841783FE",
"I  c #83F38414840E",
"U  c #85DB85DD85DE",
"Y  c #85FF860B85E3",
"T  c #8692868985AE",
"R  c #887D899E8004",
"E  c #89338A6F806D",
"W  c #8C958D348738",
"Q  c #8B3F8B658B43",
"!  c #8CB38CC58CB4",
"~  c #8F168F368E33",
"^  c #8F298EF58F5A",
"/  c #8F438F418F32",
"(  c #8F2D90288758",
")  c #904091A886FD",
"_  c #935594C48B2D",
"`  c #93B7952B8B62",
"'  c #95E196D58D27",
"]  c #94EA95CC8E12",
"[  c #907D906C90B9",
"{  c #913B9141913E",
"}  c #92509298917F",
"|  c #925C9241922F",
" . c #932693749253",
".. c #941C93EA9361",
"X. c #95ED9631951F",
"o. c #968E96AE9652",
"O. c #978C97A49749",
"+. c #990C98E69865",
"@. c #99FB99EE9A01",
"#. c #9A289A249A07",
"$. c #9A1B9A0A9A21",
"%. c #9A4E9A3D9A29",
"&. c #9B349B2D9B3A",
"*. c #9EFC9EFF9EEE",
"=. c #9F3E9F389F18",
"-. c #9FD29FCB9FF3",
";. c #A040A1AC9632",
":. c #A0DDA0D1A0FF",
">. c #A12AA0FDA0FC",
",. c #A2B5A2A2A2BE",
"<. c #A3D0A3C5A388",
"1. c #A4E7A4D7A4EF",
"2. c #A6B8A6B5A6AD",
"3. c #A82DA823A814",
"4. c #A8ADA88BA893",
"5. c #A9C1A9CEA96D",
"6. c #AA1BAA17AA4B",
"7. c #AAC7AAC6AAB9",
"8. c #AB81AB77AB56",
"9. c #AC8AAC74ACA2",
"0. c #AD59AD4BAD43",
"q. c #AE26AE29AE56",
"w. c #AE28AE2EAE4A",
"e. c #AE7EAE43AE5D",
"r. c #AFBCAFB2AFCA",
"t. c #B446B5AEA9AA",
"y. c #B916BA6DADA7",
"u. c #B0BBB09CB098",
"i. c #B1C9B1E4B1D5",
"p. c #B3A6B3A1B360",
"a. c #B508B4F7B4F7",
"s. c #B571B54BB55D",
"d. c #B6D4B6B5B6DC",
"f. c #BBBCBD55B076",
"g. c #B980B988B967",
"h. c #BAEEBAD3BA8B",
"j. c #BB3EBB34BAB1",
"k. c #BBA1BB61BABE",
"l. c #BC48BC28BB19",
"z. c #BC9FBC85BBF5",
"x. c #BDC8BDDEBE32",
"c. c #BEAFBE7DBDF5",
"v. c #BE15BE66BE82",
"b. c #BED8BED6BE54",
"n. c #BF65BF75BF84",
"m. c #C134C2C8B53E",
"M. c #C2D0C4BBB6A8",
"N. c #C118C113BF88",
"B. c #C6AEC8E0BA4B",
"V. c #C0AEC0BBC0B7",
"C. c #C12AC16CC0FF",
"Z. c #C162C16BC100",
"A. c #C1F4C21BC1DF",
"S. c #C265C25DC240",
"D. c #C33FC370C21C",
"F. c #C204C22FC25A",
"G. c #C299C2B0C29C",
"H. c #C35EC350C2FC",
"J. c #C3DBC3B9C379",
"K. c #C43FC45EC45E",
"L. c #C4ACC49EC516",
"P. c #C614C612C5FF",
"I. c #C6DEC6F8C6D7",
"U. c #C70EC776C731",
"Y. c #C7E8C7FCC6D7",
"T. c #C72AC72AC77E",
"R. c #C7C9C7CFC7E4",
"E. c #C8B0C896C905",
"W. c #C92EC941C94F",
"Q. c #C997C96EC998",
"!. c #CADBCAD8CAE6",
"~. c #CAF9CB54CA58",
"^. c #CC49CCB6CC61",
"/. c #CCA9CCAACCAD",
"(. c #CD60CD35CD34",
"). c #CDD3CDBECD9C",
"_. c #CEA4CEA0CEA1",
"`. c #D02AD026D01C",
"'. c #D1F8D204D1CE",
"]. c #D26ED26FD26C",
"[. c #D350D34ED3A8",
"{. c #D349D356D39C",
"}. c #D368D359D38C",
"|. c #D4C1D4B8D4AC",
" X c #D5B3D59DD59A",
".X c #D727D70CD73E",
"XX c #D9AED9AFD9B5",
"oX c #DA35DA25DA6F",
"OX c #DB10DB0BDB2E",
"+X c #DBC9DBD4DC3D",
"@X c #DCC2DCC5DD37",
"#X c #DD60DD57DDE1",
"$X c #DFB6DFB7DFBA",
"%X c #E0CCE0CAE0EA",
"&X c #E299E299E2B6",
"*X c #E36AE36AE372",
"=X c #E5CAE5CDE5D5",
"-X c #E74BE746E75A",
";X c #E8EEE8EEE8ED",
":X c #E9F4E9F6E9FC",
">X c #EB06EB04EB08",
",X c #EBB5EBB7EBA1",
"<X c #EF5DEF5DEF5D",
"1X c #EFC0EFBFEFC0",
"2X c #F101F100F10C",
"3X c #F170F174F16E",
"4X c #F207F208F217",
"5X c #F269F268F27C",
"6X c #F27BF27CF289",
"7X c #F51AF51AF51B",
"8X c #F5E6F5E4F5E6",
"9X c #FB2AFB29FB2A",
"0X c #FC0AFC0AFC09",
"qX c #FD5BFD5AFD5B",
"wX c None",
/* pixels */
"wX; L Y Y Y Y Y Y Y Y Y Y Y Y Y Y Y Y L , wX",
", q.:X3X3X3X3X3X3X3X3X3X3X3X3X3X1X1X2X:Xq., ",
"L -X0X0X0X0XqX0X3X:X:X:X:X7XqXqX0X0XqXqX;XL ",
"L :X7X7X7X:X.XD.L u L M u <.[.*X7X7X7X7X:XH ",
"M -X1X1X1Xi.s ; . L [ [ 1 X 2 } :X1X1X1X-XM ",
"b #X:X:X:Xo.W r   f B D ; o Z v %X;X;X:X%Xn ",
"x XX*X*X-Xo.] ] ; $ @ @ O = j 4 /.%X*X&X Xn ",
"f [.#XXX%Xo.` M.;.= ; 4 4 0 2 % B G.+X+X[.k ",
"p /. X[.XX] ` B.) f K.W.Y.Y.E.G.Y 3. X X/.y ",
"u Y.).).[.~ ( m.E b [.Y.D.D.G./.Q <.`.`.E.y ",
"e x.Y.Y.W.Y F y.F b ^.N.j.j.n.^.[ -.E.Y.n.e ",
"q j.V.D.D.M S y.F Z ).K.x.x.D.[.Q O.D.V.g.q ",
"9 i.j.j.j.f g t.Z M  X/.Y.E.).XX[ } z.j.i.9 ",
"6 q.a.a.d.Y ; e # 6 n.D.x.n.D.D.M ^ d.d.q.9 ",
"6 2.u.r.r.4.$.+...x y k k k f y x -.r.r.2.2 ",
"e Q 3.6.6.9.9.9.9.3.-.<.3.6.1.-.2.6.6.2.Q u ",
"L x x x x k k x k x x x x x x x x x h k x L ",
"wX-.$.$.$.$.$.$.$.$.$.$.$.$.$.$.$.$.$.$.*.wX"
};
