/* XPM */
static const char *btn_move[] = {
/* columns rows colors chars-per-pixel */
"22 18 108 2 ",
"   c #53D353D353D3",
".  c #57C657C657C6",
"X  c #5FDB5FDB5FDB",
"o  c #602360236023",
"O  c #676967696769",
"+  c #688068806880",
"@  c #690069006900",
"#  c #6B166B166B16",
"$  c #6D5B6D5B6D5B",
"%  c #6E6D6E6D6E6D",
"&  c #6F336F336F33",
"*  c #6FFD6FFD6FFD",
"=  c #711B711B711B",
"-  c #727372737273",
";  c #74C374C374C3",
":  c #777077707770",
">  c #78A978A978A9",
",  c #793579357935",
"<  c #7A2B7A2B7A2B",
"1  c #7C457C457C45",
"2  c #7ECB7ECB7ECB",
"3  c #7FA97FA97FA9",
"4  c #80DC80DC80DC",
"5  c #818C818C818C",
"6  c #826D826D826D",
"7  c #83C983C983C9",
"8  c #85F185F185F1",
"9  c #888588858885",
"0  c #8AE08AE08AE0",
"q  c #8B498B498B49",
"w  c #8CC38CC38CC3",
"e  c #8E018E018E01",
"r  c #8F308F308F30",
"t  c #911D9120911D",
"y  c #93E993E993E9",
"u  c #970B970B970B",
"i  c #98DE98DE98DE",
"p  c #9A089A089A08",
"a  c #9A5A9A5A9A5A",
"s  c #9B6C9B6C9B6C",
"d  c #9CEC9CEC9CEC",
"f  c #9D679D679D67",
"g  c #9F889F889F88",
"h  c #A134A146A134",
"j  c #A6F4A6F4A6F4",
"k  c #A7B1A7B1A7B1",
"l  c #A905A905A905",
"z  c #A98EA98FA98E",
"x  c #AB1BAB1BAB1B",
"c  c #AB30AB30AB30",
"v  c #ADF5ADF5ADF5",
"b  c #AE51AE51AE51",
"n  c #AFF1AFF1AFF1",
"m  c #B0BDB0BDB0BD",
"M  c #B3D1B3D3B3D1",
"N  c #B4B1B4B1B4B1",
"B  c #B543B543B543",
"V  c #B718B718B718",
"C  c #B821B821B821",
"Z  c #B8E9B8E9B8E9",
"A  c #B9DFB9DFB9DF",
"S  c #BA8DBA8DBA8D",
"D  c #BB77BB77BB77",
"F  c #BD98BD9ABD98",
"G  c #BF84BF84BF84",
"H  c #C0E0C0E0C0E0",
"J  c #C1B0C1B0C1B0",
"K  c #C39DC39DC39D",
"L  c #C5F8C5F8C5F8",
"P  c #C71BC71BC71B",
"I  c #C7ACC7ACC7AC",
"U  c #C97AC97AC97A",
"Y  c #CAEFCB06CAEF",
"T  c #CCC3CCC3CCC3",
"R  c #CDEBCDEBCDEB",
"E  c #CEB6CEB6CEB6",
"W  c #D163D163D163",
"Q  c #D376D376D376",
"!  c #D502D503D502",
"~  c #D606D606D606",
"^  c #D827D827D827",
"/  c #D9FBD9FBD9FB",
"(  c #DB1CDB35DB1C",
")  c #DC2BDC2ADC2B",
"_  c #DD05DD05DD05",
"`  c #DE39DE39DE39",
"'  c #DF12DF15DF12",
"]  c #DFF8DFF8DFF8",
"[  c #E1ECE1ECE1EC",
"{  c #E2E2E2E2E2E2",
"}  c #E3B2E3B2E3B2",
"|  c #E523E522E523",
" . c #E5E3E5E3E5E3",
".. c #E724E724E724",
"X. c #E90DE90DE90D",
"o. c #E9F1E9F1E9F1",
"O. c #EB0FEB0FEB0F",
"+. c #EDEFEDEFEDEF",
"@. c #EFE8EFE8EFE8",
"#. c #F07EF07EF07E",
"$. c #F1DCF1DCF1DC",
"%. c #F52BF52BF52B",
"&. c #F5FFF5FFF5FF",
"*. c #F6F2F6F2F6F2",
"=. c #F7ABF7ABF7AB",
"-. c #FAC2FAC2FAC2",
";. c #FB92FB92FB92",
":. c None",
/* pixels */
":.o 7 8 8 8 8 8 8 8 8 8 8 8 8 8 8 8 8 7 X :.",
"o b o.$.$.$.$.$.$.$.$.$.$.$.$.$.$.$.$.o.b o ",
"7 ..;.;.;.;.;.;.;.;.;.;.;.;.;.;.;.;.;.;...7 ",
"7 o.%.%.%.%.%.%.%.%.%.%.%.%.%.%.%.%.%.%.o.7 ",
"1 ..@.@.@.@.Q F E o.@.@.@.@.' F ' @.@.@...1 ",
"< ' o.o.o.} k f j P o.o.' m 1 w Q o...o.} 1 ",
"< / } } } ] N F D j P D 7 # i E } } } } / < ",
": Q ' / / / Y h t 1 $   : N ^ ' / ' / / Q : ",
": Y Q ^ Q ^ Y l i w # . q P ^ Q ! ^ Q Q Y : ",
"- P E E E Y j h f w b i $ - j Y E E E E P - ",
"$ F Y P P H f k l b P P m q $ i H P P Y F $ ",
"$ D H H H F l w i D H H H F l y b H H H D $ ",
"# m D D D D D D N D D D F D D D D D D D m # ",
"# b N m N N m N N N N N N N N N N N m N b # ",
"O j m m m m m m b m m m m m b n m b m b j O ",
"- q j b l b l l b l l c l l b l l b l j q - ",
"7 < < < < < < < < < < < < < < < < < < < < 8 ",
":.f i i i i i i i i i i i i i i i i i f f :."
};
