/* XPM */
static const char *btn_copy[] = {
/* columns rows colors chars-per-pixel */
"22 18 150 2 ",
"   c #5F085F1F5F10",
".  c #603A604A6046",
"X  c #64DA64DB64DC",
"o  c #678D6783679C",
"O  c #68E168FA6905",
"+  c #6B0E6B186B30",
"@  c #6D926D856D94",
"#  c #703270117011",
"$  c #713B7119712F",
"%  c #7252723D7246",
"&  c #749E74AF74A7",
"*  c #7583757C7574",
"=  c #775F778C77AD",
"-  c #789378767897",
";  c #790478E978FD",
":  c #792479217929",
">  c #7A2D7A3C7A50",
",  c #7C657C797C6B",
"<  c #7D957D8C7D86",
"1  c #7E907EA97EB3",
"2  c #7FFF800B8013",
"3  c #80FD81128100",
"4  c #815E8171815C",
"5  c #83A083A383A8",
"6  c #83E183CB840A",
"7  c #84AA849684BF",
"8  c #85ED85F985E2",
"9  c #85FE860C85FF",
"0  c #860086118613",
"q  c #8634863E863A",
"w  c #87758792878B",
"e  c #880688118816",
"r  c #889988C988C5",
"t  c #8A2C8A398A52",
"y  c #8B868B688B89",
"u  c #8C7F8C868C78",
"i  c #8DED8DED8DCB",
"p  c #8F168F1C8EFF",
"a  c #8FE18FE18FDC",
"s  c #90C890C190BD",
"d  c #9114910090FE",
"f  c #919F919F9193",
"g  c #955E95699579",
"h  c #9623962695E5",
"j  c #96D796DD96D4",
"k  c #976197809785",
"l  c #99EF99E899E9",
"z  c #9A2D99FC99EB",
"x  c #9A219A229A12",
"c  c #9A4D9A6A9A6E",
"v  c #9B2E9B099B04",
"b  c #9BAF9BC79BCE",
"n  c #9CA89CFE9D0F",
"m  c #9D299CFB9CD6",
"M  c #9DA59D9E9DA6",
"N  c #9E609E6F9E7B",
"B  c #9F539F439F6C",
"V  c #A01DA02FA038",
"C  c #A10FA120A116",
"Z  c #A49BA4A4A4A5",
"A  c #A5E6A5DFA5D2",
"S  c #A66CA671A609",
"D  c #A736A714A744",
"F  c #A93BA932A93F",
"G  c #AAC4AAE4AAE7",
"H  c #AB72AB79AB78",
"J  c #ACAEACC7ACC4",
"K  c #ADC0ADECADE3",
"L  c #AE31AE26AE2C",
"P  c #AE2DAE26AE34",
"I  c #AE74AE7EAE7B",
"U  c #AFF8B04BB04C",
"Y  c #B07DB093B09A",
"T  c #B129B16CB14E",
"R  c #B213B210B243",
"E  c #B369B362B36B",
"W  c #B461B41EB3FC",
"Q  c #B4D7B4EAB4E4",
"!  c #B59BB5ABB59E",
"~  c #B689B6AEB678",
"^  c #B7ACB7A1B7AD",
"/  c #B9E2B9E0B9EA",
"(  c #BAD2BAE9BAC8",
")  c #BB1ABB07BB46",
"_  c #BC2DBC35BBEB",
"`  c #BC32BC6EBC1A",
"'  c #BC46BC43BB9A",
"]  c #BCD7BCD5BC55",
"[  c #BDFEBE01BDCA",
"{  c #BF12BF01BEEA",
"}  c #BF83BF71BF8E",
"|  c #C098C097C096",
" . c #C153C14AC164",
".. c #C26BC23BC173",
"X. c #C2E5C2DAC2B0",
"o. c #C3B3C39DC3B8",
"O. c #C476C44BC438",
"+. c #C4CAC4BFC478",
"@. c #C619C602C60A",
"#. c #C64DC630C65A",
"$. c #C70BC6FEC704",
"%. c #C723C720C74F",
"&. c #C7ADC7B5C7CC",
"*. c #C8E5C8CAC8E6",
"=. c #C95DC92AC975",
"-. c #C95EC958C95E",
";. c #CB04CB30CB34",
":. c #CBBACBC4CB0A",
">. c #CC28CC7CCC4C",
",. c #CCF0CCC3CCCC",
"<. c #CDB8CDB0CD8D",
"1. c #CE89CE74CE8E",
"2. c #D008D003D029",
"3. c #D061D035CF99",
"4. c #D0B7D0B1D0B3",
"5. c #D135D144D161",
"6. c #D1CCD1A6D1BC",
"7. c #D2D9D2C0D2D9",
"8. c #D3ACD389D327",
"9. c #D392D384D3C2",
"0. c #D4FFD4F9D502",
"q. c #D5EAD5CCD5BD",
"w. c #D726D70DD711",
"e. c #D8CED8C3D8B5",
"r. c #D94BD94ED961",
"t. c #DA02D9EADA0B",
"y. c #DAF6DABBDACB",
"u. c #DBFADBEDDC05",
"i. c #DCC2DCC0DCC9",
"p. c #DFE0DFDBDFD0",
"a. c #E1D4E1C8E1FD",
"s. c #E306E318E33E",
"d. c #E3C2E3D4E3F9",
"f. c #E5A6E5A6E5B1",
"g. c #E712E70EE70D",
"h. c #E94AE94AE949",
"j. c #E9E8E9E7E9E8",
"k. c #EB0AEB10EB0E",
"l. c #ED3FED3AED36",
"z. c #EDF1EDEFEDF3",
"x. c #EF46EF46EF46",
"c. c #F04BF04BF04B",
"v. c #F0CEF0CCF0C2",
"b. c #F4D1F4D1F4D1",
"n. c #F5D8F5D8F5D8",
"m. c #FA78FA78FA79",
"M. c #FACEFACEFACF",
"N. c #FB91FB91FB92",
"B. c #FCFBFCFCFCFC",
"V. c None",
/* pixels */
"V.. 5 9 9 9 9 9 9 9 9 9 9 9 9 9 9 9 9 9   V.",
". P j.v.v.l.v.v.v.v.v.c.v.v.v.v.v.l.v.j.P . ",
"5 g.N.N.N.N.N.B.B.N.B.N.B.B.N.N.N.N.N.B.g.5 ",
"5 l.n.v.b.b.l.w.9.2.9.2.9.i.v.v.b.b.b.n.j.5 ",
", g.v.l.v.l.Q 5 9 9 9 9 w 9 9.c.l.c.l.v.g., ",
", i.j.j.j.g.a A 2.O.$.*.w.s X.l.j.g.j.j.p., ",
"> t.d.d.d.i.s E e.$.| } 2.t P w.t.d.d.d.t.> ",
"= 9.i.t.i.t.p Q t.m = > , X = 9 p $.i.i.9.= ",
"= :.w.8.9.9.p Q u., h } ^ ( X.$.p D w.w.*.= ",
"$ O.2.2.2.2.t U 9., J 8.O.$.*.4.h A 2.2.$.$ ",
"@ } $.$.$.$.Z s s . A :.' ' } *.h C *.$.} # ",
"@ ( | } } } } Q Q , P 4.X.X.O.9.g v X.X.^ @ ",
"+ E ( ( ( ( ( ( ` 9 E t.:.:.:.w.s s ] ] E + ",
"+ P Q E Q Q Q Q Q t , h m v k s = h Q Q P + ",
"+ A E P U U U U E J V m m m m m m H U E A o ",
"$ y A G G G J G G J P P P J J J H H G A y $ ",
"5 > > > = = > = > = > > = > = > = > - = > 7 ",
"V.m v v v v v v v k v k k v v v k v v v B V."
};
