/* XPM */
static const char *folder[] = {
/* columns rows colors chars-per-pixel */
"22 22 59 1 ",
"  c #698EE2",
". c #7499EB",
"X c #7DA1EC",
"o c #88A4E6",
"O c #88A5E6",
"+ c #87A9EE",
"@ c #8EABEA",
"# c #8FABEA",
"$ c #90B1EF",
"% c #94B0EC",
"& c #95B1EC",
"* c #9BB6EE",
"= c #90B1F0",
"- c #9ABAF1",
"; c #A2BDEF",
": c #A2BDF0",
"> c #B3C2DC",
", c #B6C5DF",
"< c #9CC0F7",
"1 c #A3C1F3",
"2 c #A7C7F5",
"3 c #A9C3F1",
"4 c #A9C3F2",
"5 c #A8C7F5",
"6 c #ACC8F4",
"7 c #A5C7F8",
"8 c #ACCCF8",
"9 c #B0C9F3",
"0 c #B6CFF5",
"q c #B5CFF6",
"w c #BDD4F7",
"e c #BCD5F7",
"r c #BED6F6",
"t c #B5D2F9",
"y c #CCCCCC",
"u c #D7D7D7",
"i c #D8D7D5",
"p c #DADADA",
"a c #DBDBDB",
"s c #C6D0E3",
"d c #C6D1E3",
"f c #CFD9EB",
"g c #C3D9F7",
"h c #C2D9F8",
"j c #C3D9F8",
"k c #C4DAF8",
"l c #C7DDF9",
"z c #C8DDF9",
"x c #C8DEF9",
"c c #D4DEF0",
"v c #CDE1FA",
"b c #D7E0F2",
"n c #D7E1F2",
"m c #EBEAE9",
"M c #F7F7F6",
"N c #F9F8F7",
"B c #F9F8F8",
"V c #F9F9F8",
"C c None",
/* pixels */
"CCCCCCCCCCCCCCCCCCCCCC",
"CCCCCCCCCCCCCCCCCCCCCC",
"CCCCCCCCCCCCCCCCCCCCCC",
"CCypppppuCCCCCCCCCCCCC",
"CCmVNNNNMiCCCCCCCCCCCC",
"C,cnnnnnnfdddddddddd>C",
"5rgggggggkkkkkkkkkkkw5",
"txvvvvvvvvvvvvvvvvvvxt",
"8hlllkllllllllllxxxxh8",
"7wjjjggghhhhhhhhhhhhw7",
"-twwwwwwrwwwwwwwwwwwq<",
"C60000000000000000006C",
"C19969999996699999991C",
"C-444444444444444444-C",
"C=::;;;;;;;;;;;;::::=C",
"C+******************+C",
"CX&&&&&%%%%%%%%%%%&&XC",
"C.##################.C",
"C OOoOooOooOoooOoooO C",
"CCCCCCCCCCCCCCCCCCCCCC",
"CCCCCCCCCCCCCCCCCCCCCC",
"CCCCCCCCCCCCCCCCCCCCCC"
};
