/* XPM */
static const char *image[] = {
/* columns rows colors chars-per-pixel */
"22 22 173 2 ",
"   c #432F2C",
".  c #403331",
"X  c #40383F",
"o  c #4A3E45",
"O  c #294066",
"+  c #32486F",
"@  c #5F5350",
"#  c #765048",
"$  c #455976",
"%  c #565771",
"&  c #716865",
"*  c #686A7C",
"=  c #8E6958",
"-  c #926754",
";  c #906B60",
":  c #A48F72",
">  c #425C94",
",  c #4A649E",
"<  c #556998",
"1  c #757181",
"2  c #6E7994",
"3  c #6F7CA4",
"4  c #5F7EC4",
"5  c #6780A8",
"6  c #6F83B6",
"7  c #6785CF",
"8  c #748CC5",
"9  c #7899EA",
"0  c #7B9DF1",
"q  c #7F9FF0",
"w  c #888888",
"e  c #8C888D",
"r  c #918D8E",
"t  c #888793",
"y  c #909090",
"u  c #939291",
"i  c #9C9C9C",
"p  c #B09D86",
"a  c #B2A597",
"s  c #BFAD98",
"d  c #BCAD9C",
"f  c #828DB1",
"g  c #9F9CB5",
"h  c #909DBB",
"j  c #A2A2A2",
"k  c #A4A4A4",
"l  c #AEA8A0",
"z  c #AAAAAA",
"x  c #ACACAC",
"c  c #ADADAD",
"v  c #AEAEAE",
"b  c #B0B0B0",
"n  c #B1B1B1",
"m  c #B7B4B3",
"M  c #B7B7B7",
"N  c #B9B9B9",
"B  c #BBBBBB",
"V  c #BCBCBC",
"C  c #BEBEBE",
"Z  c #BFBFBF",
"A  c #C7BCAC",
"S  c #C5BCB4",
"D  c #C0BDB9",
"F  c #879DC0",
"G  c #929BC5",
"H  c #B7BDCC",
"J  c #BCBFCB",
"K  c #B1B7D3",
"L  c #B7BED3",
"P  c #BABFDB",
"I  c #85A2EA",
"U  c #84A5F4",
"Y  c #8BAAF4",
"T  c #9DB4F0",
"R  c #ABBEEA",
"E  c #A2BAF4",
"W  c #BCC1D2",
"Q  c #AFC1EC",
"!  c #AAC1F6",
"~  c #C2C2C2",
"^  c #C4C4C4",
"/  c #C5C5C5",
"(  c #C6C5C7",
")  c #C7C7C7",
"_  c #C8C8C8",
"`  c #CACACA",
"'  c #CBCBCB",
"]  c #CCCCCC",
"[  c #CDCDCD",
"{  c #CECECE",
"}  c #CFCFCF",
"|  c #D3CCC4",
" . c #D6D2CD",
".. c #DAD5CD",
"X. c #C8CCD2",
"o. c #C6C8DC",
"O. c #CDCFDD",
"+. c #D0D0D0",
"@. c #D1D1D1",
"#. c #D2D2D1",
"$. c #D2D2D2",
"%. c #D3D3D3",
"&. c #D4D4D4",
"*. c #D5D5D5",
"=. c #D6D6D6",
"-. c #D7D6D6",
";. c #D7D7D7",
":. c #DBD6D1",
">. c #DDDAD6",
",. c #D8D8D8",
"<. c #D9D9D9",
"1. c #DADADA",
"2. c #DBDBDB",
"3. c #DCDCDC",
"4. c #DCDCDD",
"5. c #DDDDDD",
"6. c #DEDEDE",
"7. c #DFDFDF",
"8. c #E1E0DD",
"9. c #E2E0DD",
"0. c #C2CAE5",
"q. c #C6D0E7",
"w. c #D4D5E0",
"e. c #D4D6E7",
"r. c #DEDEE0",
"t. c #DFDFE0",
"y. c #DFE2E7",
"u. c #DFE2E8",
"i. c #DFE3EC",
"p. c #E0E0E0",
"a. c #E0E1E1",
"s. c #E1E1E1",
"d. c #E2E2E1",
"f. c #E2E2E2",
"g. c #E3E3E3",
"h. c #E4E3E3",
"j. c #E4E3E4",
"k. c #E4E4E4",
"l. c #E4E4E5",
"z. c #E5E5E5",
"x. c #E5E5E6",
"c. c #E5E6E6",
"v. c #E6E6E6",
"b. c #E7E7E7",
"n. c #E7E8E7",
"m. c #E7E8E8",
"M. c #E8E8E8",
"N. c #E9E9EA",
"B. c #EAEAEA",
"V. c #ECECEC",
"C. c #EEEDEC",
"Z. c #EEEEEE",
"A. c #EFEFEE",
"S. c #EFEFEF",
"D. c #F0F0F0",
"F. c #F1F1F1",
"G. c #F2F2F2",
"H. c #F3F3F2",
"J. c #F3F3F3",
"K. c #F4F4F4",
"L. c #F5F5F5",
"P. c #F6F6F6",
"I. c #F7F7F7",
"U. c #F8F7F7",
"Y. c #F8F8F8",
"T. c #F9F9F9",
"R. c #FAFAFA",
"E. c #FBFBFB",
"W. c #FCFCFC",
"Q. c #FDFDFD",
"!. c #FEFEFE",
"~. c #FFFFFF",
"^. c None",
/* pixels */
"^.^.^.} <.<.=.&.+.} _ D n ^.^.^.^.^.^.^.^.^.",
"^.^.^.+.h.a.a.7.<.<.=.} J z ^.^.^.^.^.^.^.^.",
"^.^.^.} b.a.j.a.a.7.<.=._ c / ^.^.^.^.^.^.^.",
"^.^.^.+.b.a.b.j.a.a.7.<.%.n 2.a.^.^.^.^.^.^.",
"^.^.^.+.M.b.b.b.b.b.a.7.=.M N / N ^.^.^.^.^.",
"^.^.^.=.M.M.b.l.9.9.:...>.l u w y i ^.^.^.^.",
"^.^.^.=.C.b.| d p s S L Q m D Z ~ M j ^.^.^.",
"^.^.^.<.C.M.A : a L E U 0 R 9.<.<.+.c ^.^.^.",
"^.^.^.<.G.M. .J h f I 9 7 , H j.9.7.N ^.^.^.",
"^.^.^.7.C.i.! Y % - g 8 3 O $ X.h.a.~ ^.^.^.",
"^.^.^.a.K.l.T 0 6 # = t 2 + < K d.b./ ^.^.^.",
"^.^.^.a.Y.V.q.4 > o = @ * G P w.y.C._ ^.^.^.",
"^.^.^.a.T.K.b.F 3 X   & e O.r.b.C.G.} ^.^.^.",
"^.^.^.j.T.T.G.u.Q 1 . r +.n.D.K.K.G.} ^.^.^.",
"^.^.^.a.W.T.T.M.r.o.( a.G.K.K.K.K.K.=.^.^.^.",
"^.^.^.a.W.T.W.K.b.b.D.U.T.U.U.U.K.K.=.^.^.^.",
"^.^.^.a.W.W.W.W.G.K.T.K.T.K.K.T.K.T.=.^.^.^.",
"^.^.^.h.W.W.W.C.} Z Z ~ =.) n.T.T.T.=.^.^.^.",
"^.^.^.b.W.W.W.M.n j c n Z _ a.E.T.T.=.^.^.^.",
"^.^.^.n.W.W.W.<./ 7.M._ <.~ <.W.E.W.=.^.^.^.",
"^.^.^.Z +.} } N / } _ _ } _ } _ _ _ ^.^.^.^.",
"^.^.^.^.^.^.^.^.^.^.^.^.^.^.^.^.^.^.^.^.^.^."
};
