/* XPM */
static const char *arch_add[] = {
/* columns rows colors chars-per-pixel */
"22 22 256 2 ",
"   c #787878",
".  c #7F7F7F",
"X  c #8F5A03",
"o  c #8C5806",
"O  c #8E5906",
"+  c #905902",
"@  c #905A03",
"#  c #905E08",
"$  c #935E09",
"%  c #8D5E12",
"&  c #95610D",
"*  c #8B6B11",
"=  c #896A12",
"-  c #966413",
";  c #976616",
":  c #9B6714",
">  c #996716",
",  c #9A6816",
"<  c #9B6816",
"1  c #9B6817",
"2  c #9C6917",
"3  c #99681B",
"4  c #9D6A1A",
"5  c #9E6B1A",
"6  c #9A691C",
"7  c #9E6C1C",
"8  c #9E6D1E",
"9  c #83771A",
"0  c #A76E14",
"q  c #A86E14",
"w  c #A26F1C",
"e  c #A97119",
"r  c #936720",
"t  c #9B6F29",
"y  c #877E22",
"u  c #A37429",
"i  c #A57529",
"p  c #A0742D",
"a  c #A6772C",
"s  c #A97728",
"d  c #AD7B2D",
"f  c #AA7C32",
"g  c #A97D34",
"h  c #AA7F3B",
"j  c #A37F45",
"k  c #67841A",
"l  c #768B2A",
"z  c #738D2B",
"x  c #748E2C",
"c  c #748D32",
"v  c #7F963C",
"b  c #7D943F",
"n  c #7E9643",
"m  c #7E9346",
"M  c #7F9546",
"N  c #7D8E51",
"B  c #81993E",
"V  c #AD803A",
"C  c #AB803C",
"Z  c #AC833C",
"A  c #CF953E",
"S  c #CF953F",
"D  c #CF963F",
"F  c #859C45",
"G  c #83915E",
"H  c #A58045",
"J  c #B48B49",
"K  c #B48C4A",
"L  c #BC914E",
"P  c #A68652",
"I  c #AC8952",
"U  c #B79255",
"Y  c #8EA04C",
"T  c #99AF45",
"R  c #98AE47",
"E  c #92A84C",
"W  c #93A94E",
"Q  c #9AB147",
"!  c #9BB048",
"~  c #9EB44B",
"^  c #9DB34D",
"/  c #91A452",
"(  c #90A553",
")  c #95A955",
"_  c #94A957",
"`  c #93A759",
"'  c #99AD5B",
"]  c #99AB5E",
"[  c #99AC5D",
"{  c #9BAE5F",
"}  c #9CAF5D",
"|  c #9FB357",
" . c #9DB15B",
".. c #A1A053",
"X. c #A0B651",
"o. c #A1B552",
"O. c #A4B956",
"+. c #A6B95A",
"@. c #A5BA5E",
"#. c #82857A",
"$. c #939B7E",
"%. c #BA9964",
"&. c #B79B6E",
"*. c #B39B75",
"=. c #96A863",
"-. c #9FB16C",
";. c #A9BD60",
":. c #AABC66",
">. c #AABE66",
",. c #A8B96A",
"<. c #ABBB6E",
"1. c #A4B573",
"2. c #AABA79",
"3. c #AFBF7F",
"4. c #D19A48",
"5. c #C19B5E",
"6. c #D9A352",
"7. c #DAA352",
"8. c #DAA452",
"9. c #DBA75A",
"0. c #C09C61",
"q. c #C5A064",
"w. c #C4A067",
"e. c #C6A166",
"r. c #C5A266",
"t. c #C6A266",
"y. c #CEA463",
"u. c #C1A06B",
"i. c #C3A26D",
"p. c #D1A869",
"a. c #D7AC6C",
"s. c #C3A677",
"d. c #C7A876",
"f. c #D6B073",
"g. c #DCB374",
"h. c #E5B366",
"j. c #E6B66C",
"k. c #E2BB7F",
"l. c #AEC16C",
"z. c #AFC16C",
"x. c #AEC06E",
"c. c #B6C67B",
"v. c #B6C57C",
"b. c #B8C87F",
"n. c #868880",
"m. c #909190",
"M. c #919191",
"N. c #929292",
"B. c #949494",
"V. c #9E9E9E",
"C. c #9EA197",
"Z. c #A5B082",
"A. c #ADBD81",
"S. c #BFB580",
"D. c #AEA69A",
"F. c #AEB699",
"G. c #A0A0A0",
"H. c #A1A1A1",
"J. c #A2A2A2",
"K. c #A3A3A3",
"L. c #A4A4A4",
"P. c #A6A6A6",
"I. c #B2B8A4",
"U. c #B2B3AD",
"Y. c #B1B1B1",
"T. c #B2B2B2",
"R. c #B3B3B3",
"E. c #B4B4B4",
"W. c #B6B6B6",
"Q. c #B7B6B9",
"!. c #BAB8BE",
"~. c #BEBEBE",
"^. c #BFBEBE",
"/. c #D6B886",
"(. c #D8B883",
"). c #D4B88B",
"_. c #D4BA8C",
"`. c #D2B990",
"'. c #D4BB92",
"]. c #D6BC91",
"[. c #D5BC97",
"{. c #D8BE95",
"}. c #BCCA86",
"|. c #B4C388",
" X c #B6C58F",
".X c #BECC88",
"XX c #C2CF99",
"oX c #D6C09C",
"OX c #D9C39E",
"+X c #C6D29B",
"@X c #CAD59E",
"#X c #E8C58F",
"$X c #E3C594",
"%X c #E8C590",
"&X c #E9C894",
"*X c #EECE9B",
"=X c #EDCE9E",
"-X c #EECF9F",
";X c #F0CE97",
":X c #F0CE99",
">X c #F1CF99",
",X c #EFD09F",
"<X c #F1D19C",
"1X c #F2D29E",
"2X c #DAC7A6",
"3X c #CAD5A1",
"4X c #C9D4AC",
"5X c #C6CEB0",
"6X c #ECCFA3",
"7X c #E9CEA4",
"8X c #EFD1A0",
"9X c #EFD1A1",
"0X c #F2D3A1",
"qX c #F0D1A2",
"wX c #F0D2A3",
"eX c #F3D4A4",
"rX c #F3D5A5",
"tX c #F1D5A9",
"yX c #F4D8AD",
"uX c #E0CEB1",
"iX c #E6D3B1",
"pX c #E7D5B8",
"aX c #D8E1BB",
"sX c #CFCFCF",
"dX c #D7CFC2",
"fX c #D1D1D0",
"gX c #D1D0D1",
"hX c #D2D2D2",
"jX c #D2D3D2",
"kX c #D3D3D3",
"lX c #D4D4D4",
"zX c #D6D6D6",
"xX c #DBDDD7",
"cX c #DADADA",
"vX c #DBDBDB",
"bX c #DADBDD",
"nX c #DDDDDD",
"mX c #DCDDDF",
"MX c #DEDEDE",
"NX c #ECDEC5",
"BX c #DEDFE2",
"VX c #E0E0E0",
"CX c #E2E1E0",
"ZX c #E2E2E2",
"AX c #E3E3E3",
"SX c #E5E5E5",
"DX c #E8E9EB",
"FX c #E9EAEB",
"GX c #EBEBEB",
"HX c #F5F5F5",
"JX c #F9F9F9",
"KX c #FAFAFA",
"LX c #FBFBFB",
"PX c #FAFBFD",
"IX c gray100",
"UX c None",
/* pixels */
"B.M.M.M.M.M.M.M.M.M.n.#.UXUXUXUXUXUXUXUXUXUX",
"M.HXGXAXAXAXAXAXAXxXZ.=.M m n UXUXUXUXUXUXUX",
"M.GXP.J.J.J.J.P.P.C.$.3.<.>.E c UXUXUXUXUXUX",
"M.AXJ.LXAXkXkXkXkXI.G N ( z.+.} b UXUXUXUXUX",
"M.AXJ.AXJ.Y.Y.Y.Y.Q.!.U.F z.R ,.) UXUXUXUXUX",
"M.AXP.kXY.IXLXLXLX4X XA.B c.T ;.E k k UXUXUX",
"M.AXP.lXY.LXvXkXkXb 1.2.|.}.! X.|  .' x UXUX",
"M.SXJ.kXY.LXAXnXnX5X-.aX+Xv.^ ! O.}.{ UXUXUX",
"M.AXK.lXY.JXvXsXfXkXF.` 3X}.X.~ z._ z UXUXUX",
"M.AXP.lXY.LXSXVXdXH t = ( +X@.:.{ 9 # O UXUX",
"M.AXK.lXT.LXmX*.p 2X_.'.d.Y XX] .._.{.%.; X ",
"M.AXP.lXY.LXFX&.oXNXu 1 3 = l y w f uX[.U 3 ",
"N.zXP.zXT.LXmXP OXpXZ i a V Z K J 0.iX`.i.6 ",
"M.N L.zXT.LXDXI d.).8XeX9X9X,X,X=X>X<X/.u.3 ",
"UXUXV.!.E.PXBXH C 7XyXrXrX1X,X,X:X:X;XtXw.- ",
"UXUXUX  W.IXPXd.Z U r.r.r.r.r.r.w.w.w.w.L & ",
"UXUXUXUXL.^.^.P.r s e 0 0 0 q q q q 0 s $ UX",
"UXUXUXUXUXUXUXUX% y.4.4.A A A A A 4.A a.4 UX",
"UXUXUXUXUXUXUXUX+ p.9.8.6.6.6.6.6.6.6.g.4 UX",
"UXUXUXUXUXUXUXUX@ f.j.h.h.h.h.h.h.h.h.k.w UX",
"UXUXUXUXUXUXUXUXO (.&X%X%X%X%X%X#X#X%X$X8 UX",
"UXUXUXUXUXUXUXUXUX1 1 > 1 2 2 4 1 1 1 > o UX"
};
