/* XPM */
static const char *bookmark_add[] = {
/* columns rows colors chars-per-pixel */
"22 22 169 2 ",
"   c #C6B438",
".  c #DAD01B",
"X  c #E3D918",
"o  c #FFDE15",
"O  c #F3E405",
"+  c #FFE700",
"@  c #FFE800",
"#  c #FFE900",
"$  c #FFEA00",
"%  c #FEF200",
"&  c #F9F008",
"*  c #D8C529",
"=  c #ECD723",
"-  c #E2D928",
";  c #E9CB37",
":  c #FFE023",
">  c #FFE129",
",  c #BCB95F",
"<  c #D7AC45",
"1  c #CDB445",
"2  c #CEB358",
"3  c #E9BD48",
"4  c #BEC07A",
"5  c #CEC152",
"6  c #E0C358",
"7  c #FBDE53",
"8  c #FEE35B",
"9  c #FBDC6A",
"0  c #FFE762",
"q  c #FFE764",
"w  c #FFE765",
"e  c #FEE275",
"r  c #FDE47F",
"t  c #698EE2",
"y  c #7499EB",
"u  c #7DA1EC",
"i  c #9FA181",
"p  c #8C9DBB",
"a  c #96A1A6",
"s  c #9FADB4",
"d  c #95A4BA",
"f  c #B1BBAC",
"g  c #A6AFBA",
"h  c #B3B7B7",
"j  c #BDBDBA",
"k  c #DBC28B",
"l  c #E8CB86",
"z  c #EFCE96",
"x  c #E0C598",
"c  c #FEE680",
"v  c #FEE883",
"b  c #FFEA88",
"n  c #FFEE91",
"m  c #FFEE92",
"M  c #DAC5A2",
"N  c #D2C9AF",
"B  c #CFC7B1",
"V  c #CDC9B8",
"C  c #CBCABF",
"Z  c #CFC9BD",
"A  c #D3C8B4",
"S  c #D0CAB6",
"D  c #F1D9A8",
"F  c #FDEAA7",
"G  c #FCE8BC",
"H  c #FFF2B5",
"J  c #8EA3CA",
"K  c #94A6CC",
"L  c #8DA4DA",
"P  c #9FB0D1",
"I  c #9CB1D8",
"U  c #ABB6C4",
"Y  c #B1BCCE",
"T  c #A9BBD6",
"R  c #87A4E7",
"E  c #88A4E6",
"W  c #88A5E6",
"Q  c #88A5E7",
"!  c #8CA6E4",
"~  c #87A4E8",
"^  c #87A4E9",
"/  c #88A5E8",
"(  c #87A9EE",
")  c #8BA8EA",
"_  c #8EABEA",
"`  c #8FABEA",
"'  c #8EABEB",
"]  c #8EABEC",
"[  c #8FABEC",
"{  c #93AFEF",
"}  c #90B1EF",
"|  c #93B0EF",
" . c #94B0EC",
".. c #95B1EC",
"X. c #9BB6EE",
"o. c #9BB6EF",
"O. c #9FB9ED",
"+. c #90B1F0",
"@. c #99B6F1",
"#. c #9ABAF1",
"$. c #A2BDEF",
"%. c #A1BDF1",
"&. c #A2BDF0",
"*. c #B3C2DC",
"=. c #B6C5DF",
"-. c #9CC0F7",
";. c #BDD0EB",
":. c #A3C1F3",
">. c #A7C3F4",
",. c #A7C7F5",
"<. c #A9C3F1",
"1. c #A9C3F2",
"2. c #ADC7F2",
"3. c #AEC7F2",
"4. c #A8C3F4",
"5. c #A8C7F5",
"6. c #ACC8F4",
"7. c #A5C7F8",
"8. c #ACCCF8",
"9. c #B0C9F3",
"0. c #B6CFF5",
"q. c #B5CFF6",
"w. c #B6CFF7",
"e. c #B6D0F7",
"r. c #BDD4F7",
"t. c #BCD5F7",
"y. c #BED6F6",
"u. c #B5D2F9",
"i. c #BCD4F8",
"p. c #C8C8C2",
"a. c #C3C8CF",
"s. c #CCCCCC",
"d. c #C2CDDB",
"f. c #D7D7D7",
"g. c #D8D7D5",
"h. c #DADADA",
"j. c #DBDBDB",
"k. c #C6D0E3",
"l. c #C6D1E3",
"z. c #C9D6E6",
"x. c #CFD9EB",
"c. c #C5D8F0",
"v. c #C3D9F7",
"b. c #C4D9F7",
"n. c #C4DAF7",
"m. c #C2D9F8",
"M. c #C3D9F8",
"N. c #C2D9F9",
"B. c #C1D9FB",
"V. c #C2DAFB",
"C. c #C4DAF8",
"Z. c #C7DDF9",
"A. c #C7DDFA",
"S. c #C0D9FD",
"D. c #C1DAFD",
"F. c #C8DDF9",
"G. c #C8DEF9",
"H. c #D4DEF0",
"J. c #CDE1FA",
"K. c #CCE1FB",
"L. c #CCE2FC",
"P. c #D7E0F2",
"I. c #D7E1F2",
"U. c #EBEAE9",
"Y. c #F7F7F6",
"T. c #F9F8F7",
"R. c #F9F8F8",
"E. c #F9F9F8",
"W. c None",
/* pixels */
"W.W.W.W.W.W.W.W.W.W.W.W.W.W.W.W.W.W.W.W.W.W.",
"W.W.W.W.W.W.W.W.W.W.W.W.W.W.W.W.W.W.W.W.W.W.",
"W.W.W.W.W.W.W.W.W.W.W.W.W.W.W.W.W.W.W.W.W.W.",
"W.W.s.h.h.h.h.h.f.W.W.W.W.W.W.W.W.W.W.W.W.W.",
"W.W.U.E.T.T.T.T.Y.g.W.W.W.W.W.W.W.W.W.W.W.W.",
"W.=.H.I.I.I.I.I.I.x.l.l.l.l.l.l.l.l.l.l.*.W.",
"5.y.v.v.v.v.v.v.v.C.b.C.C.C.C.C.C.C.C.C.y.,.",
"u.G.J.J.J.J.J.J.J.J.M A L.J.J.J.J.J.J.J.G.u.",
"6.N.Z.G.A.A.A.A.A.z.z x c.A.A.G.C.G.G.G.M.6.",
"7.r.M.v.N.N.N.S.S.Z G D a.S.N.N.N.M.v.N.i.7.",
"-.e.r.r.y.d.B A A l H F k V C p.;.y.r.y.e.-.",
"W.6.q.q.q.j 3 e r b n n b r 9 < Y q.0.0.6.W.",
"W.:.9.6.9.3.h 6 8 q q q 0 7 2 g 2.3.9.9.1.W.",
"W.#.<.<.<.<.4.U ; > > : o 1 P 1.1.1.1.1.#.W.",
"W.} $.$.&.&.#.T = @ + @ @ 5 O.$.$.$.$.$.} W.",
"W.( X.X.X.X.#.f & O   * % - I o.o.o.o.o.( W.",
"W.u {  . . .{ 4 . i L K , X s +.{  . . .u W.",
"W.y _ { _ _ _ d p ) [ [ W a J [ _ { _ _ y W.",
"W.t W W W W E R / W W W W / W W E W W W t W.",
"W.W.W.W.W.W.W.W.W.W.W.W.W.W.W.W.W.W.W.W.W.W.",
"W.W.W.W.W.W.W.W.W.W.W.W.W.W.W.W.W.W.W.W.W.W.",
"W.W.W.W.W.W.W.W.W.W.W.W.W.W.W.W.W.W.W.W.W.W."
};
