/* XPM */
static const char *generic[] = {
/* columns rows colors chars-per-pixel */
"22 22 77 1 ",
"  c #7C7C7C",
". c #838383",
"X c #8C8C8C",
"o c #9A9A9A",
"O c #A5A5A5",
"+ c #A8A8A8",
"@ c #ACACAC",
"# c #AEAEAE",
"$ c #B0B0B0",
"% c #B3B3B3",
"& c #B8B8B8",
"* c #B9B9B9",
"= c #BCBCBC",
"- c #BDBDBD",
"; c #BEBEBE",
": c #BFBFBF",
"> c #C0C0C0",
", c #C2C2C2",
"< c #C4C4C4",
"1 c #C5C5C5",
"2 c #C7C7C7",
"3 c #C8C8C8",
"4 c #C9C9C9",
"5 c #CACACA",
"6 c #CBCBCB",
"7 c #CCCCCC",
"8 c #CDCDCD",
"9 c #CECECE",
"0 c #CFCFCF",
"q c #D0D0D0",
"w c #D1D1D1",
"e c #D2D1D2",
"r c #D2D2D2",
"t c #D3D3D3",
"y c #D4D4D4",
"u c #D4D4D5",
"i c #D5D5D5",
"p c #D6D6D6",
"a c #D7D7D7",
"s c #D8D8D8",
"d c #D9D9D9",
"f c #DADADA",
"g c #DBDBDB",
"h c #DCDCDC",
"j c #DDDDDD",
"k c #DEDEDE",
"l c #DFDEDF",
"z c #DEDFDF",
"x c #DFDFDF",
"c c #E0E0E0",
"v c #E1E1E1",
"b c #E2E2E2",
"n c #E3E3E3",
"m c #E4E4E4",
"M c #E5E5E5",
"N c #E6E6E6",
"B c #E7E7E7",
"V c #E8E8E8",
"C c #E9E9E9",
"Z c #EAEAEA",
"A c #EBEBEB",
"S c #ECECEC",
"D c #EDEDED",
"F c #EEEEEE",
"G c #EFEFEF",
"H c #F0F0F0",
"J c #F1F1F1",
"K c #F2F2F2",
"L c #F3F3F3",
"P c #F5F5F5",
"I c #F6F6F6",
"U c #F7F7F7",
"Y c #F8F8F8",
"T c #FBFAFB",
"R c #FCFCFC",
"E c #FDFDFD",
"W c None",
/* pixels */
"WWWWasptt04,$WWWWWWWWW",
"WWW2nnnxxspt,@WWWWWWWW",
"WWW2nnnnxspp0@:WWWWWWW",
"WWW2x,4442:,:O4AWWWWWW",
"WWW4n4440422:+$4*WWWWW",
"WWW4M004244:*$X .oWWWW",
"WWW0M40,4xnxsp2::*+WWW",
"WWW0AnxxxASSAMnxsp*WWW",
"WWWtAxxxxsnsssspsx2WWW",
"WWWtSp0tttptttp4tx4WWW",
"WWWpK00ptp0000p00xtWWW",
"WWWpKtpttpttt4t0pMpWWW",
"WWWpKssstpxptstt0nsWWW",
"WWWaKxspsppppspttnxWWW",
"WWWpIsssapppsKKKKKxWWW",
"WWWpYYYYIIIIIYIIIIxWWW",
"WWWpYxMnMnxxnxpsKIxWWW",
"WWWsIsppsssxssspxKnWWW",
"WWWxIxsxpnpxpsxAAInWWW",
"WWWsYKSSASASMASEEEnWWW",
"WWWWt0400400604444:WWW",
"WWWWWWWWWWWWWWWWWWWWWW"
};
