/* XPM */
static const char *btn_open[] = {
/* columns rows colors chars-per-pixel */
"22 18 146 2 ",
"   c #4B7D4B7E4B79",
".  c #599759AA599C",
"X  c #5C455C715BF8",
"o  c #5EA95EB95EB0",
"O  c #5EC15EEE5E9F",
"+  c #5F545F6F5F48",
"@  c #604A6056603A",
"#  c #60B660F160D6",
"$  c #615361736138",
"%  c #6410642F63BC",
"&  c #65CB65DC65AB",
"*  c #679167C0677C",
"=  c #687E68BA6866",
"-  c #68FA68FD68D2",
";  c #6A176A576A4A",
":  c #6B326B3C6B1B",
">  c #6CA56CBA6C91",
",  c #6CE46CFF6CF0",
"<  c #6D7C6D9D6D7D",
"1  c #6E9A6EC56EC1",
"2  c #6EE06F036F06",
"3  c #6F096F326F37",
"4  c #705870757051",
"5  c #710671387109",
"6  c #7239724D7237",
"7  c #73B673D373A8",
"8  c #74E074F474DB",
"9  c #74EC750174F1",
"0  c #778677A5776F",
"q  c #789678A6788E",
"w  c #78F678FB78F1",
"e  c #793179377927",
"r  c #7A1E7A3F7A1E",
"t  c #7C777C797C70",
"y  c #7EDD7EDD7EDC",
"u  c #80DA80DA80DD",
"i  c #81698169816B",
"p  c #83938398839C",
"a  c #83F3840E83FD",
"s  c #840284198409",
"d  c #85D285D185D6",
"f  c #862886288626",
"g  c #89AA89B989A2",
"h  c #8AA28AB18AA2",
"j  c #8B4C8B728B4B",
"k  c #8C888CA08C6E",
"l  c #8DBA8DBA8DC9",
"z  c #8E3D8E3C8E36",
"x  c #8FD58FD48FD2",
"c  c #90D290C990DA",
"v  c #919F91B7919F",
"b  c #92AA92A692A3",
"n  c #947D948D9471",
"m  c #96409615963B",
"M  c #9675966E965F",
"N  c #973F9751970E",
"B  c #978D97959797",
"V  c #98BA98B498B5",
"C  c #99DB99D899DC",
"Z  c #9A249A199A15",
"A  c #9A1C9A229A17",
"S  c #9A0E9A229A2A",
"D  c #9A459A4C9A48",
"F  c #9B479B409B51",
"G  c #9C579C439C57",
"H  c #9D1E9D0B9D0A",
"J  c #9E9A9E939E89",
"K  c #9F619F609F62",
"L  c #A08DA087A091",
"P  c #A2A1A2A2A29D",
"I  c #A58EA583A598",
"U  c #A707A707A704",
"Y  c #A777A774A772",
"T  c #A8B7A8AEA8AD",
"R  c #A9CBA9B0A9D0",
"E  c #AB14AB14AB15",
"W  c #AB48AB48AB49",
"Q  c #ADF7ADF8ADF5",
"!  c #AE5AAE59AE56",
"~  c #AFFAAFFFAFF3",
"^  c #B0A2B0A2B0A2",
"/  c #B225B225B225",
"(  c #B301B301B302",
")  c #B39AB397B395",
"_  c #B4E1B4D0B4E2",
"`  c #B59CB59BB59C",
"'  c #B6ABB675B6AD",
"]  c #B829B809B829",
"[  c #B933B938B943",
"{  c #B94AB8F9B94F",
"}  c #B9ECB9E0B9F0",
"|  c #BA3BBA2BBA3B",
" . c #BAEDBAE0BAEC",
".. c #BDA4BD73BDB3",
"X. c #BE9FBE8EBEBA",
"o. c #BFB5BFABBFD6",
"O. c #C086C020C085",
"+. c #C0E6C0D0C0ED",
"@. c #C1B1C17EC1BE",
"#. c #C50EC511C518",
"$. c #C56BC520C589",
"%. c #C5B0C595C5BB",
"&. c #C65DC622C663",
"*. c #C6CCC6C9C6D0",
"=. c #C7DDC7DDC818",
"-. c #C8E6C8A3C905",
";. c #C9D5C9D7C9DB",
":. c #CB4FCB31CB5B",
">. c #CC4ECC45CC53",
",. c #CCD8CCAACCDD",
"<. c #CDFECDDECE06",
"1. c #CF13CED1CF2C",
"2. c #CFF8CFD9D001",
"3. c #D28AD288D28A",
"4. c #D3B9D39AD3B9",
"5. c #D55FD553D55F",
"6. c #D63AD5F3D639",
"7. c #D700D6A6D6FF",
"8. c #D802D7F4D807",
"9. c #D87FD87AD881",
"0. c #D9DDD9D2D9DD",
"q. c #DCEEDCCCDCEE",
"w. c #DDDCDDDBDDDE",
"e. c #DE83DE78DE84",
"r. c #E01EE015E01E",
"t. c #E10DE0FBE110",
"y. c #E206E1F9E209",
"u. c #E2E4E2D9E2E4",
"i. c #E38FE391E38F",
"p. c #E524E522E526",
"a. c #E5CAE5CAE5CA",
"s. c #E704E703E705",
"d. c #E95AE95AE95A",
"f. c #E9FEE9FDEA00",
"g. c #EAEAEAEAEAEC",
"h. c #EB90EB90EB90",
"j. c #ECB2ECB0ECB4",
"k. c #EDA9ED9AEDB0",
"l. c #F008F004F008",
"z. c #F0D4F0D4F0D6",
"x. c #F1BDF1BDF1BD",
"c. c #F4E9F4E9F4E9",
"v. c #F5F0F5EEF5EF",
"b. c #FA58FA57FA58",
"n. c #FB36FB36FB36",
"m. c None",
/* pixels */
"m.@ p d d d d d d d d d d d d d d d d p @ m.",
"@ ! f.z.z.z.z.z.z.z.z.z.z.z.z.z.z.z.z.f.! @ ",
"p s.n.n.n.n.n.n.n.n.n.n.v.f.j.n.n.n.n.n.s.p ",
"p j.v.z.v.z.v.v.c.z.v.j.&.U P 0.f.h.v.v.f.p ",
"t s.z.j.z.z.j.z.j.z.z.8.o.u.<.T G :.z.z.s.t ",
"t e.f.f.f.s.( J @.u.u.u.u.s.r.B 4 #.f.f.r.t ",
"r 0.u.u.u.! k U N h h k h D :.@.o.8.u.u.0.r ",
"0 4.e.0.e.N P 4.@._ _ _ _ D &.u.r.e.q.e.4.0 ",
"9 >.8.8.8.N P <.<.T J D D 4 v P J U >.8.>.0 ",
"4 #.<.<.4.n J -.J = @ @ + + + + X k &.2.&.4 ",
"4 O.=.&.:.v N B @ = 4 2 2 = = * j o.=.=.o.3 ",
"2 } O.o.#.h > & = 4 2 2 2 2 2 h } @.O.@.{ 2 ",
"= ) } } o.p   . + @ @ @ + @ k _ } } }  .) : ",
"= ~ _ _ ) P k k x v N N v N ! _ _ _ _ _ ! = ",
"* U ( ~ ( ( ( ( ( ) _ _ _ ) ( ~ ( ~ ~ ( U = ",
"4 j U W T ! T T ! T T ! T T ! T W W T U j 4 ",
"s r r q r q q r q q r q q r q q q r q q r s ",
"m.K F D D D D D D D D D D D D D D D D D K m."
};
