/* XPM */
static const char *btn_edit[] = {
/* columns rows colors chars-per-pixel */
"22 22 85 1 ",
"  c #353331363268",
". c #59DC576B5824",
"X c #7D757BE77C69",
"o c #919B9141925F",
"O c #965896BE97ED",
"+ c #9812988B9988",
"@ c #9A549A569B68",
"# c #9D379D399E3D",
"$ c #A1ACA1E0A2E5",
"% c #A214A262A355",
"& c #A31DA36BA408",
"* c #A3AAA3FCA4DE",
"= c #A493A4CFA5C2",
"- c #A4E5A521A662",
"; c #A5AFA5DCA665",
": c #A664A6F9A825",
"> c #A793A70EA770",
", c #A6D9A747A878",
"< c #AFEFB030B12F",
"1 c #B272B2DEB3F8",
"2 c #B3E5B436B559",
"3 c #B49BB522B5FB",
"4 c #B6CBB730B813",
"5 c #B883B871B904",
"6 c #B991BA0DBB41",
"7 c #BB7FBAEDBB22",
"8 c #BED3BF35C02E",
"9 c #BEFCBF52C06B",
"0 c #C555C54BC5D4",
"q c #C8B3C83AC86B",
"w c #D2ADD275D294",
"e c #D593D5A4D5DB",
"r c #D808D810D83D",
"t c #D8C1D8C2D912",
"y c #DA13DA25DA7E",
"u c #DAD8DAA4DAC7",
"i c #DACEDAF3DB5D",
"p c #DC04DBDADBCF",
"a c #DD23DD2EDD6A",
"s c #DDD4DDC1DDFB",
"d c #DE78DE3BDE29",
"f c #DEC6DECEDEF9",
"g c #E026E022E053",
"h c #E248E23CE24C",
"j c #E339E33CE340",
"k c #E421E40EE413",
"l c #E4ADE4B1E4B5",
"z c #E5F7E5F5E5F8",
"x c #E6C7E6BEE6BF",
"c c #E7FDE7F8E7F3",
"v c #E8E9E8EFE8F4",
"b c #E998E995E992",
"n c #EAB0EA7AEA43",
"m c #EB0EEB07EB00",
"M c #EB86EB19EB03",
"N c #EBA3EBA6EBA8",
"B c #EC93EC0FEC4B",
"V c #ECE8ECC8ECDE",
"C c #EDFDEDE2EDF5",
"Z c #EE9FEE71EE47",
"A c #EEC4EEBAEEB2",
"S c #EF8BEF6BEF50",
"D c #EF86EF71EF5D",
"F c #F010EFF4EFD8",
"G c #F07AF05AF041",
"H c #F108F0FCF0F0",
"J c #F171F14DF159",
"K c #F1D5F1C9F1BE",
"L c #F29DF264F22C",
"P c #F289F276F263",
"I c #F305F2FEF2F9",
"U c #F387F365F343",
"Y c #F38BF375F35F",
"T c #F42AF421F41A",
"R c #F48BF46AF448",
"E c #F503F4FCF4F5",
"W c #F5DEF5DEF5DE",
"Q c #F700F700F6FF",
"! c #F820F820F820",
"~ c #F900F900F900",
"^ c #F9D4F9D4F9D4",
"/ c #FAD8FAD7FAD7",
"( c #FBFAFBFAFBFA",
") c #FCA3FCA3FCA3",
"_ c None",
/* pixels */
"______________________",
"___HWWWWWWWWWWWWHDg___",
"___W~~~))))))))~~~j___",
"___H~~~~)~))~)))~~x___",
"___H~~~~))))))~)))M___",
"___WWW~~~~~)))))))v___",
"___HWW~~~~~)))))))M___",
"___HWWW!~~~~)))~~~M___",
"___GYEWW~~~WH~))))M___",
"___GYEWWWWxiq~~)))M___",
"___GHEYEWg57e~))))M___",
"___GHHYEg4@>D~~~~~M___",
"___DHHHa2O>j!~~~))M___",
"___BGHa1O>gWWW~~~~v___",
"___BDt7O*gWWWW~~~~M___",
"___Mr9>&gHHWWWWW!~x___",
"___09,&iHHHHWWWWW~c___",
"___1,&iDHHHEHWWWW~x___",
"__<>&eDDDDHHHEEWW!x___",
"_Xo#eDMDDDHHHWHWWWx___",
" ._ejxjxxxxMxMMMMBg___",
"______________________"
};
