/* XPM */
static const char *btn_view[] = {
/* columns rows colors chars-per-pixel */
"22 22 239 2 ",
"   c #25F831AE22D9",
".  c #33643E982E23",
"X  c #448F41C6219D",
"o  c #437F46B82EBD",
"O  c #4E0449FA298F",
"+  c #426B4E0D3535",
"@  c #49FA54243FBB",
"#  c #671854FC382C",
"$  c #2CB7363D4480",
"%  c #36CF42534A78",
"&  c #3C2C4C3E5387",
"*  c #3D1C515E6B24",
"=  c #766269534B8D",
"-  c #68686DF05CF8",
";  c #40C74EC0710A",
":  c #43DE64006654",
">  c #4B6F6B5E7031",
",  c #4CEE69D17480",
"<  c #4F656B3D7958",
"1  c #544A7D9B7F58",
"2  c #7DBE7A6462F3",
"3  c #76447DF06FC2",
"4  c #7C397B7E6ADD",
"5  c #986788A26A64",
"6  c #B98688B7645E",
"7  c #3C0B5A1A87ED",
"8  c #382B50598C69",
"9  c #3A03598C9AA6",
"0  c #3ED55DF49BBF",
"q  c #3B1A5C2F9CF9",
"w  c #3DFC5F9C9E24",
"e  c #3F1760059805",
"r  c #44755DA998BF",
"t  c #4A9165CF80F7",
"y  c #42A562289C05",
"u  c #47B36BD79BE4",
"i  c #554576479022",
"p  c #57677CD59635",
"a  c #5AC37C1294B9",
"s  c #50A475509BCE",
"d  c #43896683A107",
"f  c #401B61EAA5E5",
"g  c #495A6AFBA3A0",
"h  c #4D2E6865A327",
"j  c #4CFB695FA576",
"k  c #483C6E0FA6C6",
"l  c #439A69FBAE51",
"z  c #4C5A71CAA880",
"x  c #4C2773DBAD7A",
"c  c #50FF7330AA1A",
"v  c #55F872E6A874",
"b  c #536E77ACAE7E",
"n  c #54A875ECAC8B",
"m  c #546E76A9AC96",
"M  c #57407405AEB4",
"N  c #52397B6EAFA4",
"B  c #42C56E54B81D",
"V  c #48EC73DBB731",
"C  c #44DD70CCB9DD",
"Z  c #450C711EBB2B",
"A  c #45B8724EBC69",
"S  c #4A8977DBB8D8",
"D  c #4C007A1EBA19",
"F  c #4C4E7C1DBA7C",
"G  c #58547F50B2D7",
"H  c #58378A1E87E8",
"J  c #5DCB806D8C43",
"K  c #5CEB85DE8C19",
"L  c #5FE98A5D8EF8",
"P  c #65AE96EC9583",
"I  c #6BB9960998C8",
"U  c #6D8D98359BA9",
"Y  c #78C190D699C5",
"T  c #6AF3A27FA005",
"R  c #5C3D865EA33B",
"E  c #51818143B7FA",
"W  c #5B448476B40E",
"Q  c #5585872FBAC5",
"!  c #5D6287FBB8B2",
"~  c #56DD8B0CBBF2",
"^  c #5F269241BD76",
"/  c #653387F8A766",
"(  c #65B38D89A779",
")  c #60F38824B828",
"_  c #641C8191BA55",
"`  c #7C238B16B0C6",
"'  c #65329302BBAE",
"]  c #619295F9BDED",
"[  c #6200963FBDF7",
"{  c #696592BEBE24",
"}  c #67C498B9BA62",
"|  c #690D9B86C035",
" . c #764195B6B967",
".. c #7465942BBECB",
"X. c #7FAF9290B8C5",
"o. c #7A859F59B96E",
"O. c #7D45BE80BD01",
"+. c #7D0EC121BFD7",
"@. c #67D78CE3C084",
"#. c #6CE88AFCC2F6",
"$. c #6C388E37C092",
"%. c #6BB991FCC20C",
"&. c #6C5D918AC325",
"*. c #6C91954EC424",
"=. c #6FC39BADC43D",
"-. c #6A919E34C1C8",
";. c #74139C2CC3B2",
":. c #7D729B10C3A8",
">. c #76BD94A0CAE4",
",. c #75489B1CC94A",
"<. c #76AA9FC9CAF9",
"1. c #7B529E69CFBE",
"2. c #7E5B9C7ED06D",
"3. c #7177A25AC528",
"4. c #758CA29CC8DE",
"5. c #7B8CA1A4CD15",
"6. c #804B891B895B",
"7. c #97198FD881CB",
"8. c #9BB2914B8345",
"9. c #921998778AC5",
"0. c #983999358FD3",
"q. c #925F9BA99BE9",
"w. c #A525A46F97C2",
"e. c #8079B589B1DE",
"r. c #805CBF8ABFAC",
"t. c #A56CA99DA576",
"y. c #B06BB4F9AD1C",
"u. c #B02EB7DAB827",
"i. c #B143BAFEB2A2",
"p. c #BBF0BBFEB2D7",
"a. c #C72EA099812B",
"s. c #C6DAA036831A",
"d. c #C1D0A23F86BA",
"f. c #CBD8A525878B",
"g. c #C420A22488A4",
"h. c #D454AFED9359",
"j. c #CED8B36B9EC0",
"k. c #D151B5DEA0EE",
"l. c #DD91BD68A4A2",
"z. c #DA8DC6EFB8BC",
"x. c #DB17CB48BF3D",
"c. c #E53DCBF8B8CC",
"v. c #8971A4D5CBCE",
"b. c #8C0FAA73CE7B",
"n. c #9638B288C11B",
"m. c #9714B635CFCB",
"M. c #88BBA4C1D456",
"N. c #81B1A83AD207",
"B. c #8542A841D503",
"V. c #8B76ADB7D77E",
"C. c #93ABAF6CD3D0",
"Z. c #91D3AA35D5A3",
"A. c #9A86AF27D597",
"S. c #8F41B15FD0F4",
"D. c #8EE6B290D1CC",
"F. c #8E48B058D8A0",
"G. c #9508B289D6D5",
"H. c #994AB29ED6A3",
"J. c #9653B95ED457",
"K. c #9D33BB79D795",
"L. c #98D9BDCED614",
"P. c #973CB8EDDB05",
"I. c #9E04BAE6D9B7",
"U. c #995CBEF1D965",
"Y. c #98CEB88DDD57",
"T. c #A648BAB8C933",
"R. c #A360B498D519",
"E. c #A9C1B8EDD567",
"W. c #A13DBAD3D8FC",
"Q. c #A674BE12DA62",
"!. c #A3A1BF66DFDB",
"~. c #B566BF50D374",
"^. c #9FF0C1ECDA6F",
"/. c #9669DCF2DAE8",
"(. c #A3CFC45ECC24",
"). c #A3ACC119E05E",
"_. c #A9F4C0A5DBD7",
"`. c #B6C6C1DCD7EE",
"'. c #BE93C867DBB2",
"]. c #AADDC608E205",
"[. c #AA3EC66AE2A2",
"{. c #AE08C8A4E418",
"}. c #B077C8C8E46B",
"|. c #B267CABEE53A",
" X c #B0F1CB88E690",
".X c #BE59D255E67A",
"XX c #BDAFD3BCE944",
"oX c #BDADD501EA18",
"OX c #C31AC887C166",
"+X c #C79DCAA2C686",
"@X c #D008D2F7CE1D",
"#X c #D59BD402CE9B",
"$X c #D124D4F3CD20",
"%X c #CBB8CF95D4F1",
"&X c #C28ECB04DBB9",
"*X c #C8D8D0C7DB7F",
"=X c #CD5DD2E1DFA2",
"-X c #DAF8DDA4D4C1",
";X c #DEB5E018DF4C",
":X c #E8B2D43AC4CD",
">X c #E3A5D7B8CE94",
",X c #E9B4DAB8CF08",
"<X c #E072E155DAD5",
"1X c #EAE4E0AAD89C",
"2X c #E9F3E3F2DF2C",
"3X c #C766D68AE426",
"4X c #C044D42DE765",
"5X c #C95ED19CE0F3",
"6X c #C2EFD849EB57",
"7X c #C6F4DB04E98E",
"8X c #C538DA13EB64",
"9X c #C46CD8D0EBAC",
"0X c #C6E8DA0EEC25",
"qX c #C30BDA2DEDC4",
"wX c #CF05DC1BEB23",
"eX c #D423DBC5E889",
"rX c #D984DF62E8CE",
"tX c #D2CBE283EEB2",
"yX c #D5B5E284EDCC",
"uX c #D93EE163E8EE",
"iX c #DEA5E269E8C4",
"pX c #DEB8E4F5EBEE",
"aX c #DDD4E55DEDDB",
"sX c #D92AE730F25B",
"dX c #DC26E7D3F187",
"fX c #DFC1E924F140",
"gX c #DE67E953F2B8",
"hX c #DE43EC72F437",
"jX c #E095E337E4EE",
"kX c #E9E6EB4FE87D",
"lX c #EB43ECEAECA3",
"zX c #E3ECEB0EF14D",
"xX c #E16AEA3CF331",
"cX c #E3CBEEA5F4EA",
"vX c #EBBAF5E4F93F",
"bX c #F108F32FF342",
"nX c #F0F9F4E2F577",
"mX c #F7C3FB07FBDD",
"MX c None",
/* pixels */
"MXMXMXMXMXMXMXMXMXMXMXMXMXMXMXMXMXMXMXMXMXMX",
"MXMXMXMXMXMXMXMXMXMXMXMXMXMXMXMXMXMXMXMXMXMX",
"MXMXMXMXMXMXMXMXMXMXMXMXMXMXMXMXMXMXMXMXMXMX",
"MXMX=X~.&X5XeXrXMXMXMXMXMXMXMXMXMXMXMXMXMXMX",
"MXMX` 8 r h m _ #.>.1.M.Z.A.R.E.`.iXMXMXMXMX",
"MXMXX.v 0 9 q ; y B Z Z Z V l f j '.MXMXMXMX",
"MXMXfX.Xm w e $ 7 S S F <.7XG.x m *XMXMXMXMX",
"MXMXvXQ.g d k * u E Q ~ ^.mXcXS.I.u.3 9.$XMX",
"MXpX4XW.c z N t s ] ] ] 3.L.J.;.b.q.. + y.MX",
"MXaXC.$.b G ! a i R p } -.| ' W ..6.  @ +XMX",
"MXnXhXG.@.%.*.( < , & / 4.=.{ ) :.0.o - MXMX",
"MXxXsX8X!.].P.J : > %  .N.5.,.&.v.7.# 8.MXMX",
"MXwX X X!.XXoXY H P L o.V.V.B.1.H.4 X w.MXMX",
"MXfX9X{.).]. Xn.T O.+.K m.U.K.Y._.2 O p.MXMX",
"MXzXdXyXtX8X9X(.e./.r.1 U I T.qX3X5 = #XMXMX",
"MXMXMXMX;XlXbXkX<X-X$XOXi.t.%XuXjXs.d.MXMXMX",
"MXMXMXMXMXMXMXMXMX1X,X:Xc.l.h.f.s.6 k.MXMXMX",
"MXMXMXMXMXMXMXMXMXMXMXMXMX2X>Xz.j.g.x.MXMXMX",
"MXMXMXMXMXMXMXMXMXMXMXMXMXMXMXMXMXMXMXMXMXMX",
"MXMXMXMXMXMXMXMXMXMXMXMXMXMXMXMXMXMXMXMXMXMX",
"MXMXMXMXMXMXMXMXMXMXMXMXMXMXMXMXMXMXMXMXMXMX",
"MXMXMXMXMXMXMXMXMXMXMXMXMXMXMXMXMXMXMXMXMXMX"
};
