/* XPM */
static const char *btn_new[] = {
/* columns rows colors chars-per-pixel */
"22 18 116 2 ",
"   c #5FDB5FDB5FDB",
".  c #602360236023",
"X  c #65B865B865B8",
"o  c #677667766776",
"O  c #6894688F688F",
"+  c #68ED68ED68ED",
"@  c #6B146B146B14",
"#  c #6D8C6D8C6D8C",
"$  c #700170017001",
"%  c #711171117111",
"&  c #723E723E723E",
"*  c #74C374C374C3",
"=  c #777077707770",
"-  c #78A878A878A8",
";  c #792479247924",
":  c #7A3B7A3B7A40",
">  c #7C507C507C50",
",  c #7ECB7ECB7ECB",
"<  c #7F107F107F16",
"1  c #80E380E380E3",
"2  c #814781478147",
"3  c #822C822C822C",
"4  c #83B983B983B9",
"5  c #840784078407",
"6  c #85F085EF85EF",
"7  c #8A838A838A83",
"8  c #8B468B468B46",
"9  c #8D278D278D27",
"0  c #8E398E398E56",
"q  c #8F268F268F26",
"w  c #90B090B090B0",
"e  c #932693269326",
"r  c #949B949B949B",
"t  c #979797979797",
"y  c #986E986B986B",
"u  c #99FD99FD99FD",
"i  c #9A379A379A37",
"p  c #9B659B659B65",
"a  c #9CAA9CA89CA8",
"s  c #9D919D919D91",
"d  c #9EE49EE49EE4",
"f  c #9F2F9F2F9F2F",
"g  c #A067A067A067",
"h  c #A13DA13DA13E",
"j  c #A3E8A3E8A3E8",
"k  c #A5A5A5A5A5A5",
"l  c #A6E8A6E8A6E8",
"z  c #A7AFA7AFA7AF",
"x  c #A898A898A898",
"c  c #A983A983A986",
"v  c #AAD3AAD3AAD3",
"b  c #AB8EAB8EAB8E",
"n  c #ACC8ACC8ACC8",
"m  c #AD94AD94AD94",
"M  c #AE57AE57AE57",
"N  c #AFC1AFC1AFC1",
"B  c #B0AAB0AAB0AA",
"V  c #B19BB19BB19F",
"C  c #B280B280B280",
"Z  c #B37CB37CB37C",
"A  c #B4BCB4BCB4BC",
"S  c #B594B594B595",
"D  c #B747B747B747",
"F  c #B8ECB8ECB8EC",
"G  c #B996B996B99A",
"H  c #BA93BA93BA93",
"J  c #BBD9BBD9BBD9",
"K  c #BDA3BDA3BDA5",
"L  c #BEF2BEF2BEF2",
"P  c #BFABBFABBFAB",
"I  c #C0C8C0C8C0C8",
"U  c #C1B7C1B7C1B7",
"Y  c #C30BC30BC30B",
"T  c #C3E5C3E5C3E5",
"R  c #C4C1C4C1C4C1",
"E  c #C62EC62EC62E",
"W  c #C708C708C708",
"Q  c #C7B9C7B9C7B9",
"!  c #C8AEC8AEC8AE",
"~  c #CA93CA93CA93",
"^  c #CC49CC49CC49",
"/  c #CCC3CCC3CCC3",
"(  c #CDF7CDF7CDF7",
")  c #CED1CED1CED1",
"_  c #D04FD04FD04F",
"`  c #D1A2D1A2D1A2",
"'  c #D386D386D386",
"]  c #D50AD50AD50A",
"[  c #D5FCD5FCD5FC",
"{  c #D874D874D874",
"}  c #D9FBD9FBD9FB",
"|  c #DC1CDC1CDC1C",
" . c #DCE1DCE1DCE1",
".. c #DEC4DEC3DEC3",
"X. c #DFF8DFF8DFF8",
"o. c #E08FE08FE08F",
"O. c #E2EAE2EAE2EA",
"+. c #E3C0E3C0E3C0",
"@. c #E5E3E5E3E5E3",
"#. c #E6FCE6FBE6FB",
"$. c #E967E967E967",
"%. c #E9EBE9EBE9EB",
"&. c #EB19EB19EB19",
"*. c #EBF5EBE6EBE6",
"=. c #ECC3ECBBECBB",
"-. c #EEBBEEBBEEBB",
";. c #EFBAEFB9EFB9",
":. c #F0AEF0AEF0AE",
">. c #F1E7F1E7F1E7",
",. c #F2EBF2EAF2EA",
"<. c #F52BF52BF52B",
"1. c #F61DF61DF61D",
"2. c #F91CF91CF91C",
"3. c #FAC2FAC2FAC2",
"4. c #FB92FB92FB92",
"5. c None",
/* pixels */
"5.. 4 6 6 6 6 6 6 6 6 6 6 6 6 6 6 6 6 4   5.",
". M %.>.>.>.>.>.>.<.>.>.>.>.>.>.>.>.>.%.M   ",
"4 #.4.4.4.4.<.-.-.%.-.=.%.>.4.4.4.4.4.4.#.4 ",
"4 %.<.<.<.<.#.t e p t t 6 p ..<.<.<.<.<.%.4 ",
"> #.>.-.-.>...p J E Y Y t O a } -.-.-.>.#.> ",
"> ..%.%.%.%...a Y ! E E t O o a #.%.%.%.O.> ",
": } O.O.O.O.[ a Y E Y Y M t 7 e ..O.O.O.} : ",
"= ' ..} } ..' p P P J S C C l p } ..} | ' = ",
"= ! [ ' [ [ ! p S S C M v v h p ' [ ' ' ! = ",
"% E _ _ _ _ E t M C M n v v a e ! _ _ _ E % ",
"$ P E E E E Y 9 v v v v l v a e Y E E E P # ",
"# J Y P Y Y P 9 l v v l l l a 9 P P Y Y J # ",
"O C J J J J J 9 v v v v v v h 9 J J F J Z O ",
"O M S Z S S M : > 4 > 4 > 4 : 4 C S C S M O ",
"o l C M C M M h h h h l j l l l C M M C l O ",
"% 7 l v v v v v M M M M M M M M v v v l 7 % ",
"6 : : = : = = : = : = = = : = = : = = : : 6 ",
"5.a p p p p p p p t p p y p p p p p y p a 5."
};
