/* XPM */
static const char *btn_terminal[] = {
/* columns rows colors chars-per-pixel */
"22 22 110 2 ",
"   c #0A0A0A",
".  c #0B0B0B",
"X  c #0C0C0C",
"o  c #0D0D0D",
"O  c #0E0E0E",
"+  c #0F0F0F",
"@  c #101010",
"#  c #111111",
"$  c #121212",
"%  c #131313",
"&  c #141414",
"*  c #151515",
"=  c #161616",
"-  c #171717",
";  c #181818",
":  c #191919",
">  c #1A1A1A",
",  c #1B1B1B",
"<  c #1C1C1C",
"1  c #1D1D1D",
"2  c #1E1E1E",
"3  c #1F1F1F",
"4  c #202020",
"5  c #212121",
"6  c #222222",
"7  c #232323",
"8  c #242424",
"9  c #252525",
"0  c #262626",
"q  c #272727",
"w  c #282828",
"e  c #292929",
"r  c #2A2A2A",
"t  c #2B2B2B",
"y  c #2C2C2C",
"u  c #2F2F2F",
"i  c #303030",
"p  c #323232",
"a  c #353535",
"s  c #363636",
"d  c #373737",
"f  c #3A3A3A",
"g  c #3D3D3D",
"h  c #424242",
"j  c #444444",
"k  c #464646",
"l  c #474747",
"z  c #484848",
"x  c #494949",
"c  c #4B4B4B",
"v  c #4C4C4C",
"b  c #4D4D4D",
"n  c #4E4E4E",
"m  c #505050",
"M  c #525252",
"N  c #535353",
"B  c #575757",
"V  c #595959",
"C  c #5A5A5A",
"Z  c #5B5B5B",
"A  c #5C5C5C",
"S  c #5D5D5D",
"D  c #5E5E5E",
"F  c #5F5F5F",
"G  c #606060",
"H  c #616161",
"J  c #646464",
"K  c #6E6E6E",
"L  c #6F6F6F",
"P  c #707070",
"I  c #717171",
"U  c #737373",
"Y  c #747474",
"T  c #797979",
"R  c #7E7E7E",
"E  c #7F7F7F",
"W  c #818181",
"Q  c #8A8A8A",
"!  c #8C8C8C",
"~  c #8F8F8F",
"^  c #909090",
"/  c #919191",
"(  c #929292",
")  c #939393",
"_  c #949494",
"`  c #959595",
"'  c #979797",
"]  c #989898",
"[  c #9A9A9A",
"{  c #9F9F9F",
"}  c #A2A2A2",
"|  c #A4A4A4",
" . c #A5A5A5",
".. c #A7A7A7",
"X. c #A8A8A8",
"o. c #AAAAAA",
"O. c #ADADAD",
"+. c #B0B0B0",
"@. c #B3B3B3",
"#. c #B5B5B5",
"$. c #B7B7B7",
"%. c #B9B9B9",
"&. c #BABABA",
"*. c #BCBCBC",
"=. c #C2C2C2",
"-. c #C6C6C6",
";. c #CDCDCD",
":. c #CECECE",
">. c #CFCFCF",
",. c None",
/* pixels */
",.,.,.,.,.,.,.,.,.,.,.,.,.,.,.,.,.,.,.,.,.,.",
",.,.,.,.,.,.,.,.,.,.,.,.,.,.,.,.,.,.,.,.,.,.",
",.-.:.:.>.>.>.:.>.:.>.>.>.>.>.>.:.>.:.:.-.,.",
",.=.../ / ` / / / ` / / / ` / / / / ! ..=.,.",
",.*.J p f p u t t u t u t t 8 8 8 8 5 F *.,.",
",.&.H z / T z t 8 8 8 8 8 8 8 8 5 5 3 Z &.,.",
",.&.F s W :.] u 8 8 8 5 5 5 5 3 3 : : Z &.,.",
",.#.F h ` W m s s p 8 5 5 3 3 3 3 3 = B #.,.",
",.@.F t s t g Q ] I t 3 3 3 3 : = $ + B @.,.",
",.O.Z 3 5 5 t h k f 8 3 3 = $ $ $ +   m O.,.",
",.O.Z 5 5 5 5 5 5 3 : = $ $ $ + + + + m O.,.",
",.o.Z 5 5 5 3 3 : = = $ $ $ $ $ + + + m o.,.",
",...Z 3 5 3 = = $ = $ $ $ $ + + + +   n o.,.",
",...B : = = = = = = $ $ $ $ $ + + +   n ..,.",
",.} m = = = = = $ & $ $ $ + + + +   + n } ,.",
",.{ m & = = $ & = $ $ $ $ $ + + + +   z { ,.",
",.] n $ = = = $ $ $ $ $ $ + + + +     z { ,.",
",.` m : : : : : : : = = = = = = $ $ $ z / ,.",
",.! W I I I I I I K K I K I K K K K K R ! ,.",
",.K I Y I Y Y I Y Y Y Y I Y Y Y Y Y Y Y K ,.",
",.,.,.,.,.,.,.,.,.,.,.,.,.,.,.,.,.,.,.,.,.,.",
",.,.,.,.,.,.,.,.,.,.,.,.,.,.,.,.,.,.,.,.,.,."
};
