/* XPM */
static const char *btn_delete[] = {
/* columns rows colors chars-per-pixel */
"22 18 132 2 ",
"   c #1CED1CED1CED",
".  c #232B232B232B",
"X  c #253B253B253B",
"o  c #267B267B267B",
"O  c #2A802A802A80",
"+  c #2C1E2C1E2C1E",
"@  c #2D4B2D4B2D4B",
"#  c #2F8F2F8F2F8F",
"$  c #319131913191",
"%  c #328432843284",
"&  c #332133213321",
"*  c #3B4F3B4F3B4F",
"=  c #3C0C3C0C3C0C",
"-  c #3E403E403E40",
";  c #40AD40AD40AD",
":  c #413F413F413F",
">  c #425B425B425B",
",  c #42E742E742E7",
"<  c #440E440E440E",
"1  c #44E844E844E8",
"2  c #481648164816",
"3  c #499149914991",
"4  c #4A924A924A92",
"5  c #4EF54EF54EF5",
"6  c #529652965296",
"7  c #54C854C854C8",
"8  c #572457245724",
"9  c #593F593F593F",
"0  c #5FD75FD75FD7",
"q  c #60D960D960D9",
"w  c #634E634E634E",
"e  c #644D644D644D",
"r  c #654965496549",
"t  c #6A9A6A9A6A9A",
"y  c #6D9E6D9E6D9E",
"u  c #6F426F426F42",
"i  c #70A670A670A6",
"p  c #71C071C071C0",
"a  c #724572457245",
"s  c #73B673B673B6",
"d  c #765076507650",
"f  c #779477947794",
"g  c #7DDC7DDC7DDC",
"h  c #81FB81FB81FB",
"j  c #820E820E820E",
"k  c #847A847A847A",
"l  c #85B285B285B2",
"z  c #865786578657",
"x  c #88CE88CE88CE",
"c  c #8C5D8C5D8C5D",
"v  c #8DFA8DFA8DFA",
"b  c #8FF48FF48FF4",
"n  c #907890789078",
"m  c #913D913D913D",
"M  c #92D892D892D8",
"N  c #935E935E935E",
"B  c #943E943E943E",
"V  c #959F959F959F",
"C  c #974D974D974D",
"Z  c #98A998A998A9",
"A  c #99BB99BB99BB",
"S  c #9AE99AE99AE9",
"D  c #9D099D099D09",
"F  c #9E8C9E8C9E8C",
"G  c #A0E3A0E3A0E3",
"H  c #A1A9A1A9A1A9",
"J  c #A355A355A355",
"K  c #A4F7A4F7A4F7",
"L  c #A592A592A592",
"P  c #A69EA69EA69E",
"I  c #A885A885A885",
"U  c #A9B8A9B8A9B8",
"Y  c #ABBEABBEABBE",
"T  c #AC8BAC8BAC8B",
"R  c #ADA6ADA6ADA6",
"E  c #B1A4B1A4B1A4",
"W  c #B3AAB3AAB3AA",
"Q  c #B5FEB5FEB5FE",
"!  c #B827B827B827",
"~  c #B8D5B8D5B8D5",
"^  c #B9F5B9F5B9F5",
"/  c #BC31BC31BC31",
"(  c #BCF7BCF7BCF7",
")  c #BD96BD96BD96",
"_  c #BF36BF36BF36",
"`  c #BF94BF94BF94",
"'  c #C12CC12CC12C",
"]  c #C303C303C303",
"[  c #C3D2C3D2C3D2",
"{  c #C471C471C471",
"}  c #C5D0C5D0C5D0",
"|  c #C8A4C8A4C8A4",
" . c #C9F0C9F0C9F0",
".. c #CD41CD41CD41",
"X. c #CE00CE00CE00",
"o. c #CE69CE69CE69",
"O. c #D081D081D081",
"+. c #D2DFD2DFD2DF",
"@. c #D35AD35AD35A",
"#. c #D476D476D476",
"$. c #D5AFD5AFD5AF",
"%. c #D7AAD7AAD7AA",
"&. c #D8C5D8C5D8C5",
"*. c #DA21DA21DA21",
"=. c #DAEDDAEDDAED",
"-. c #DC4EDC4EDC4E",
";. c #DD0FDD0FDD0F",
":. c #DDE9DDE9DDE9",
">. c #DF03DF03DF03",
",. c #E155E155E155",
"<. c #E2F1E2F1E2F1",
"1. c #E394E394E394",
"2. c #E4A6E4A6E4A6",
"3. c #E581E581E581",
"4. c #E81AE81AE81A",
"5. c #E8C6E8C6E8C6",
"6. c #E98BE98BE98B",
"7. c #EB2DEB2DEB2D",
"8. c #ECC8ECC8ECC8",
"9. c #ED9BED9BED9B",
"0. c #EE70EE70EE70",
"q. c #F16CF16CF16C",
"w. c #F216F216F216",
"e. c #F42AF42AF42A",
"r. c #F4DEF4DEF4DE",
"t. c #F5BCF5BCF5BC",
"y. c #F734F734F734",
"u. c #F84AF84AF84A",
"i. c #F87FF87FF87F",
"p. c #F9CEF9CEF9CE",
"a. c #FB41FB41FB41",
"s. c None",
/* pixels */
"s.s.s.s.s.s.s.s.s.s.s.s.s.s.s.s.s.s.s.s.s.s.",
"s.s.M L L L L I L L L L L L I L L L L M s.s.",
"s.M ;.y.y.y.y.y.a.a.a.y.y.a.a.y.y.y.y.*.M s.",
"s.L y.y.e.e.y.y.;.~ F C E *.e.y.y.e.y.y.L s.",
"s.L e.e.0.e.0.~ w # . o # w Q 0.e.e.0.e.L s.",
"s.H 0.5.0.5.Q >   8 F I g > 5 ~ 0.0.5.0.H s.",
"s.F 5.4.5.$.w o & 0 [ 5.1.I 3 i $.5.4.5.F s.",
"s.S 1.1.4.E & e g > y } 4.;.j 3 ~ 1.1.1.S s.",
"s.C ;.;.*.S # M ..d * d ..1.H > L ;.;.;.S s.",
"s.C *.$.$.C & C *.) w - z @.S - H $.*.*.M s.",
"s.v @.@.$.T > d | $.T 8 < v y > E $.@.@.M s.",
"s.v ......[ y 3 M } ..F 3 * & t [ ......x s.",
"s.x | | | | I 9 > y M v 8 & 6 I | | | | x s.",
"s.z } [ [ } } I t * # O - i I } [ } [ } x s.",
"s.j ) ) ) ) ) } ~ L M M I ) } [ ) ) ) [ j s.",
"s.i T ) ) ) ) ~ [ [ [ [ } ) ) ~ ) ) ) T i s.",
"s.s.e i d i i i i i d i i i i d i i i e s.s.",
"s.s.s.s.s.s.s.s.s.s.s.s.s.s.s.s.s.s.s.s.s.s."
};
